<?xml version="1.0" encoding="utf-8"?>
<!-- Uploaded to: SVG Repo, www.svgrepo.com, Generator: SVG Repo Mixer Tools -->
<svg height="800px" width="800px" version="1.2" baseProfile="tiny" id="Layer_1" xmlns="http://www.w3.org/2000/svg" xmlns:xlink="http://www.w3.org/1999/xlink"
	  viewBox="-102 103.6 50.4 50.4" xml:space="preserve">
<g>
	<path fill="none" d="M-77.3,125.8c-2.1,0-4.2,0.7-5.8,2.1c-2,1.7-3.2,4.2-3.2,6.8l0,14.6l18,0l0-14.6
		C-68.3,129.9-72.3,125.9-77.3,125.8z M-72.7,136.5l-3.4,0l0,8l-2.4,0l0-8l-3.4,0l0-2.4l3.4,0l0-3.2l2.4,0l0,3.2l3.4,0L-72.7,136.5z
		"/>
	<path fill="none" d="M-84.6,126.2l0-8.2c0-3.4-2.8-6.3-6.3-6.3c-1.5,0-2.9,0.5-4,1.4c-1.4,1.2-2.2,2.9-2.3,4.8l0,9.4h11.4
		C-85.4,126.9-85,126.5-84.6,126.2z M-87.7,119.2l-2.4,0l0,5.3l-1.7,0l0-5.3l-2.3,0l0-1.7l2.3,0l0-2.2l1.7,0l0,2.2l2.4,0
		L-87.7,119.2z"/>
	<path fill="none" d="M-62.7,111.7c-1.5,0-2.9,0.5-4,1.4c-1.4,1.2-2.2,2.9-2.3,4.8l0,9.1c0.1,0.1,0.1,0.1,0.2,0.2h12.3l0-9.3
		C-56.4,114.5-59.2,111.7-62.7,111.7z M-59.5,119.2l-2.4,0l0,5.3l-1.7,0l0-5.3l-2.3,0l0-1.7l2.3,0l0-2.2l1.7,0l0,2.2l2.4,0
		L-59.5,119.2z"/>
	<polygon points="-76.1,130.9 -78.5,130.9 -78.5,134.2 -81.9,134.1 -81.9,136.5 -78.5,136.5 -78.6,144.5 -76.2,144.5 -76.2,136.5 
		-72.7,136.5 -72.7,134.2 -76.2,134.2 	"/>
	<polygon points="-61.9,115.3 -63.6,115.3 -63.6,117.5 -65.9,117.5 -65.9,119.1 -63.6,119.2 -63.6,124.4 -61.9,124.4 -61.9,119.2 
		-59.5,119.2 -59.5,117.5 -61.9,117.5 	"/>
	<polygon points="-90.1,115.3 -91.7,115.3 -91.7,117.5 -94.1,117.5 -94.1,119.1 -91.7,119.2 -91.8,124.4 -90.1,124.4 -90.1,119.2 
		-87.7,119.2 -87.7,117.5 -90.1,117.5 	"/>
	<path d="M-53.3,127.3h-1.5l0-9.3l0-0.5l0,0c-0.3-4.1-3.7-7.4-7.9-7.4c-1.9,0-3.7,0.6-5.1,1.8c-1.8,1.5-2.8,3.7-2.9,6l0,7.7
		c-1.9-1.3-4.1-2.1-6.6-2.2c-2,0-4,0.5-5.7,1.5l0-7l0-0.5l0,0c-0.3-4.1-3.7-7.4-7.9-7.4c-1.9,0-3.7,0.6-5.1,1.8
		c-1.8,1.5-2.8,3.7-2.9,6l0,9.4h-1.4v1.4h13.4c-1.1,1.8-1.8,3.9-1.8,6l0,15.3l-7.5,0l0,3.9l0.3,0h37.3l0-3.9l-7.3,0l0-15.3l0-0.7
		l0,0c-0.1-2-0.8-3.8-1.8-5.4h14.5V127.3z M-97.2,127.3l0-9.4c0-1.9,0.8-3.6,2.3-4.8c1.1-0.9,2.6-1.5,4-1.4c3.4,0,6.2,2.8,6.3,6.3
		l0,8.2c-0.4,0.3-0.8,0.7-1.1,1.1H-97.2z M-68.3,149.4l-18,0l0-14.6c0-2.7,1.2-5.1,3.2-6.8c1.6-1.3,3.7-2.1,5.8-2.1c4.9,0,9,4,9,9
		L-68.3,149.4z M-68.8,127.3c-0.1-0.1-0.1-0.1-0.2-0.2l0-9.1c0-1.9,0.8-3.6,2.3-4.8c1.1-0.9,2.6-1.5,4-1.4c3.4,0,6.2,2.8,6.3,6.3
		l0,9.3H-68.8z"/>
</g>
</svg>