<?xml version="1.0" ?>
<!-- Uploaded to: SVG Repo, www.svgrepo.com, Generator: SVG Repo Mixer Tools -->
<svg width="800px" height="800px" viewBox="0 0 64 64" id="Layer_1_1_" version="1.1" xml:space="preserve" xmlns="http://www.w3.org/2000/svg" xmlns:xlink="http://www.w3.org/1999/xlink">
<g>
<polygon points="38,10 25,10 23,55 27,62 38,62 41,55  " style="fill:#FCD770;"/>
<path d="M23,55l1.341,2.348C29.999,48.555,30,39.53,30,32c0-0.055-0.008-0.117-0.009-0.173l0.001,0   l-0.003-0.033c-0.01-0.702-0.082-1.455-0.195-2.239L28.094,10H25L23,55z" style="fill:#FFC729;"/>
<path d="M41,55l-3-45h-2.095l-1.676,19.271c-0.042,0.267-0.064,0.52-0.095,0.779   c-0.019,0.159-0.044,0.322-0.058,0.477C34.029,31.036,34,31.531,34,32c0,7.618,0.005,16.765,5.862,25.654L41,55z" style="fill:#FFC729;"/>
<path d="M44,42.489V42C44,21,54,8,54,8h-8h-5v35h3V42.489z" style="fill:#AAB2BD;"/>
<polygon points="38,14 26,14 25,51 29.638,58 34.362,58 39,51  " style="fill:#FFEAA7;"/>
<path d="M43,17.17l1.359-2.524H44.33c1.811-3.241,3.315-5.508,3.334-5.536L48,8.605V8h-2h-5v35h3v-0.511V42   c0-2.635,0.158-5.144,0.433-7.517C43.112,26.102,43.007,18.555,43,17.17z" style="fill:#969FAA;"/>
<path d="M35.557,14l-1.328,15.271c-0.042,0.267-0.064,0.52-0.095,0.779   c-0.019,0.159-0.044,0.322-0.058,0.477C34.029,31.036,34,31.531,34,32c0,6.383,0.017,13.84,3.464,21.318L39,51l-1-37H35.557z" style="fill:#FCD770;"/>
<path d="M36,32c0-9,10-24,10-24V2h-1l-7,7L36,32z" style="fill:#E6E9ED;"/>
<path d="M40.99,16.646h0.023L41,16.667V17c0,6,1,44,19,45H46C36,52,36,41,36,32   C36,27.506,38.493,21.517,40.99,16.646z" style="fill:#CCD1D9;"/>
<path d="M20,42.342V42C20,21,10,8,10,8h8h6v35h-4V42.342z" style="fill:#AAB2BD;"/>
<path d="M20,43h4V8h-6h-2v0.605l0.336,0.504c0.034,0.052,1.534,2.319,3.342,5.557l-0.047,0l1.368,2.509   c-0.007,1.4-0.113,8.937-1.432,17.307C19.842,36.856,20,39.365,20,42v0.342V43z" style="fill:#969FAA;"/>
<rect height="10" style="fill:#FCD770;" width="2" x="31" y="1"/>
<path d="M25,51l1.538,2.322C29.986,45.842,30,38.384,30,32c0-0.055-0.008-0.117-0.009-0.173l0.001,0   l-0.003-0.033c-0.01-0.702-0.082-1.455-0.195-2.239L28.442,14H26L25,51z" style="fill:#FCD770;"/>
<path d="M28,32c0-9-10-24-10-24V2h1l7,7L28,32z" style="fill:#E6E9ED;"/>
<rect height="44" style="fill:#FFC729;" width="2" x="31" y="14"/>
<path d="M23.01,16.646h-0.023L23,16.667V17c0,6-1,44-19,45h14c10-10,10-21,10-30   C28,27.506,25.507,21.517,23.01,16.646z" style="fill:#CCD1D9;"/>
<path d="M41,17v-0.333l0.012-0.021H40.99C38.493,21.517,36,27.506,36,32c0,0.029,0,0.058,0,0.087L36,36   l2.202-6.236c0.449-2.715,1.573-5.794,2.894-8.732C41.02,19.221,41,17.811,41,17z" style="fill:#AAB2BD;"/>
<path d="M23.01,16.646h-0.023L23,16.667V17c0,0.811-0.02,2.221-0.096,4.031   c1.322,2.938,2.445,6.018,2.894,8.732L28,36l0-3.913c0-0.029,0-0.058,0-0.087C28,27.506,25.507,21.517,23.01,16.646z" style="fill:#AAB2BD;"/>
<rect height="2" style="fill:#969FAA;" width="62" x="1" y="61"/>
</g>
</svg>