<svg width="434" height="635" viewBox="0 0 434 635" fill="none" xmlns="http://www.w3.org/2000/svg">
<path d="M185.441 396.612C131.465 395.496 117.848 394.306 128.781 391.663C137.011 389.672 145.944 370.363 153.094 339.11C155.421 328.938 159.2 316.74 161.492 312.004C166.126 302.426 174.527 293.495 183.302 288.818C189.003 285.779 189.742 285.757 232.403 287.327C264.294 288.501 276.664 289.461 279.313 290.969C284.951 294.18 294.126 306.023 297.491 314.435C299.176 318.648 302.195 330.751 304.199 341.33C310.105 372.504 316.39 390.118 322.836 393.565C324.822 394.626 326.446 396.124 326.446 396.894C326.446 398.513 272.101 398.404 185.441 396.612Z" fill="#FFC500"/>
<path d="M234.505 83.3198C227.869 82.2422 228.019 82.4095 228.076 76.1324C228.121 71.1539 228.664 68.2481 230.713 62.0003C232.239 57.3491 236.004 38.2961 240.642 11.7475C241.721 5.57275 242.656 0.463401 242.72 0.39339C242.784 0.32335 243.255 4.79282 243.767 10.3256C245.061 24.3095 247.551 47.2982 248.562 54.5996C249.027 57.9563 249.851 62.4294 250.393 64.54C251.629 69.3479 252.189 74.297 251.892 77.7837C251.667 80.4328 251.638 80.4968 250.061 81.9505C249.18 82.7625 248.049 83.5987 247.548 83.8086C246.083 84.4218 239.855 84.1886 234.505 83.3198Z" fill="#FFC500"/>
<path d="M247.357 96.8242C247.357 96.0516 246.185 95.9278 233.997 95.4115L228.197 95.1658L226.843 93.5488C226.018 92.5634 225.587 91.7549 225.739 91.4788C225.876 91.2296 226.702 89.8187 227.573 88.3435C228.445 86.8683 229.209 85.5111 229.27 85.3278C229.333 85.1422 231.247 85.3204 233.582 85.7286C237.939 86.4907 245.463 86.7954 247.922 86.3093C249.181 86.0604 249.351 86.1148 249.558 86.8343C249.686 87.2759 250.486 88.8796 251.337 90.3981L252.885 93.1592L251.493 94.4967C250.727 95.2323 249.483 96.2137 248.729 96.6774C247.432 97.4743 247.357 97.4823 247.357 96.8242Z" fill="#FFC500"/>
<path d="M249.645 106.521C249.481 105.831 248.812 105.737 238.343 104.93C232.223 104.458 226.927 104.156 226.574 104.257C226.07 104.402 225.771 104.065 225.188 102.693C224.778 101.731 224.498 100.628 224.565 100.242C224.633 99.8499 225.426 99.108 226.363 98.5615L228.04 97.583L237.615 98.0903C243.171 98.3847 247.233 98.4587 247.293 98.2666C247.422 97.8494 250.858 99.5302 252.321 100.726L253.422 101.626L252.724 102.992C252.341 103.743 251.53 105.009 250.923 105.806C249.945 107.088 249.799 107.17 249.645 106.521Z" fill="#FFC500"/>
<path d="M235.317 136.692C227.307 136.326 220.692 135.96 220.618 135.879C220.544 135.797 220.308 134.773 220.095 133.604L219.707 131.477L221.355 129.72L223.003 127.963L235.937 129.007C243.051 129.582 249.401 130.012 250.048 129.963C251.112 129.882 251.224 129.769 251.224 128.767V127.659L236.441 126.495C228.311 125.854 221.628 125.312 221.589 125.29C221.551 125.268 221.742 124.559 222.012 123.715C222.283 122.87 222.595 121.247 222.705 120.109C222.897 118.136 223.76 115.261 224.159 115.266C224.262 115.267 229.789 115.765 236.441 116.373C251.686 117.766 250.72 117.766 250.72 116.38C250.72 115.536 250.543 115.237 249.964 115.102C249.548 115.005 244.068 114.5 237.785 113.979C231.502 113.458 225.95 112.956 225.445 112.864C224.663 112.721 224.49 112.854 224.269 113.766L224.01 114.837L223.124 113.994C221.15 112.117 221.209 111.86 224.26 109.062L227.034 106.519L238.082 107.412C245.459 108.008 249.2 108.179 249.341 107.928C249.608 107.452 254.883 112.573 255.023 113.445C255.09 113.863 254.591 114.495 253.597 115.248L252.067 116.406L252.603 117.777C252.898 118.531 253.135 120.063 253.129 121.182C253.122 122.301 253.299 123.965 253.52 124.881C253.907 126.481 253.887 126.583 252.993 127.526C252.482 128.065 252.064 128.712 252.064 128.962C252.064 129.213 252.809 130.227 253.721 131.214C255.51 133.153 255.533 133.34 254.377 136.44C253.925 137.653 255.788 137.628 235.317 136.692Z" fill="#FFC500"/>
<path d="M238.789 148.717C229.919 148.249 221.583 147.855 220.264 147.84L217.864 147.814L217.319 146.312C217.018 145.486 216.889 144.59 217.03 144.321C217.172 144.052 218.224 142.973 219.369 141.924C220.514 140.875 221.551 139.668 221.673 139.244C221.886 138.507 222.053 138.482 225.303 138.698C227.177 138.823 233.548 139.102 239.461 139.319C252.245 139.788 252.264 139.791 252.523 140.927C252.631 141.4 253.703 142.686 254.905 143.784C256.361 145.113 257.092 146.048 257.095 146.584C257.099 147.365 255.583 149.712 255.137 149.615C255.015 149.589 247.659 149.184 238.789 148.717Z" fill="#FFC500"/>
<path d="M260.461 196.51C260.461 195.976 260.032 195.889 257.353 195.883C255.644 195.879 245.703 195.633 235.264 195.336C224.823 195.039 214.656 194.792 212.669 194.788L209.056 194.781L207.571 192.56L206.086 190.339L208.664 187.517L211.242 184.696L232.912 185.866C244.83 186.509 255.603 187.135 256.849 187.257L259.117 187.479V186.136C259.117 185.308 258.956 184.795 258.697 184.797C258.466 184.798 247.694 184.21 234.76 183.49C216.953 182.499 210.975 182.05 210.145 181.642L209.049 181.102L210.383 179.775C212.285 177.884 213.762 175.287 213.762 173.833C213.762 172.939 213.357 172.07 212.237 170.555L210.712 168.494L212.484 166.25C215.564 162.352 213.924 162.569 234.26 163.364C243.958 163.744 252.385 164.06 252.985 164.067C254.011 164.079 254.076 164.002 254.076 162.786C254.076 161.618 253.986 161.492 253.153 161.501C252.644 161.506 244.443 161.228 234.927 160.883C218.377 160.283 217.585 160.222 216.722 159.486C216.225 159.063 215.432 158.418 214.958 158.052C214.485 157.687 214.097 157.166 214.097 156.895C214.097 156.623 215.111 155.05 216.35 153.398L218.603 150.395L221.138 150.402C222.532 150.405 230.022 150.736 237.783 151.137C245.544 151.538 252.501 151.868 253.242 151.87C254.474 151.875 254.72 152.053 256.098 153.948C258.337 157.027 259.117 158.275 259.117 158.779C259.117 159.028 258.172 159.782 257.017 160.454C255.31 161.448 254.897 161.867 254.811 162.697C254.724 163.531 254.907 163.834 255.819 164.361C256.432 164.716 258.052 166.242 259.419 167.753L261.905 170.499L260.091 172.272C258.574 173.755 258.056 174.046 256.924 174.056C255.15 174.072 221.99 172.684 217.542 172.409L214.098 172.195V173.501C214.098 174.609 214.213 174.808 214.854 174.811C220.115 174.834 257.632 176.744 257.707 176.992C257.996 177.946 259.979 180.828 261.143 181.986L262.468 183.304L261.549 183.544C260.372 183.852 259.454 184.731 259.454 185.551C259.454 186.509 262.177 190.395 263.59 191.452C264.269 191.961 264.826 192.468 264.827 192.58C264.83 192.774 263.319 194.381 261.386 196.241C260.619 196.978 260.461 197.024 260.461 196.51Z" fill="#FFC500"/>
<path d="M247.184 207.685C235.578 207.305 204.221 205.861 204.073 205.699C203.852 205.455 204.978 203.435 205.905 202.414C206.426 201.84 207.31 201.117 207.868 200.807C209.386 199.963 210.395 198.817 210.395 197.936C210.395 197.208 210.549 197.158 212.494 197.254C213.649 197.311 222.002 197.528 231.057 197.736C240.111 197.944 250.178 198.218 253.428 198.346C259.331 198.577 259.337 198.578 259.192 199.412C258.965 200.722 259.662 201.727 261.655 202.966C263.352 204.02 265.494 206.663 265.494 207.701C265.494 208.151 261.297 208.147 247.184 207.685Z" fill="#FFC500"/>
<path d="M231.326 212.928C219.277 212.595 209.319 212.211 209.196 212.077C209.074 211.942 208.895 211.055 208.797 210.106L208.621 208.38L210.937 208.599C212.21 208.719 215.898 208.911 219.132 209.025C222.366 209.14 227.279 209.394 230.051 209.591C232.822 209.787 240.601 210.12 247.336 210.329C254.071 210.538 259.646 210.78 259.723 210.865C259.801 210.951 259.764 211.611 259.641 212.333L259.418 213.644L256.325 213.59C254.624 213.56 243.374 213.262 231.326 212.928Z" fill="#FFC500"/>
<path d="M229.556 216.414C214.866 216.172 202.796 215.951 202.735 215.922C202.673 215.893 202.686 215.663 202.762 215.41C202.858 215.093 203.828 214.941 205.898 214.921C209.717 214.884 248.346 215.767 256.014 216.067C261.719 216.29 261.809 216.282 261.809 215.527C261.809 214.535 263.01 214.486 263.243 215.469C263.538 216.712 262.834 216.983 259.474 216.917C257.71 216.883 244.247 216.657 229.556 216.414Z" fill="#FFC500"/>
<path d="M138.16 377.689C138.16 377.581 138.597 376.541 139.13 375.377C141.215 370.823 144.621 362.095 145.877 358.084C147.359 353.353 149.031 346.425 151.589 334.422C155.208 317.442 158.89 308.216 165.173 300.384C167.828 297.076 172.884 292.167 175.864 290.005C178.394 288.17 184.989 284.559 186.649 284.1C187.826 283.775 188.219 282.71 188.219 279.839C188.219 277.647 188.218 277.644 187.211 277.644C186.36 277.644 186.203 277.5 186.203 276.72V275.795H191.614C197.735 275.795 197.428 276.044 195.464 272.663L194.288 270.639L196.496 269.888C199.203 268.967 199.187 268.968 199.402 269.873C199.544 270.47 199.331 270.689 198.265 271.041C197.544 271.279 196.954 271.638 196.954 271.838C196.954 272.736 198.841 275.424 199.474 275.427C199.843 275.428 215.038 276.01 233.238 276.72C251.439 277.429 267.162 278.01 268.179 278.012L270.027 278.015L269.859 275.703L269.691 273.391L267.045 273.282C264.773 273.189 264.428 273.254 264.599 273.744C264.741 274.153 264.585 274.318 264.053 274.324C262.292 274.344 203.371 271.313 202.078 271.137C200.837 270.967 200.65 270.823 200.65 270.039C200.65 269.481 200.843 269.137 201.158 269.137C201.437 269.137 203.348 268.393 205.404 267.483C207.46 266.573 209.252 265.903 209.386 265.994C209.519 266.085 209.718 265.212 209.826 264.054C209.935 262.897 209.993 261.931 209.956 261.909C209.919 261.887 207.945 260.675 205.569 259.215C202.228 257.163 200.945 256.561 199.91 256.561H198.571L198.795 254.619C199.122 251.784 199.277 251.383 200.043 251.383C200.671 251.383 200.721 251.554 200.574 253.232L200.413 255.082L204.815 255.086C207.236 255.089 220.267 255.336 233.772 255.636C247.277 255.935 260.014 256.172 262.076 256.162L265.827 256.143V254.903C265.827 254.221 265.906 253.434 266.003 253.155C266.151 252.731 260.164 252.495 229.389 251.713C209.154 251.199 192.508 250.679 192.397 250.557C192.287 250.435 192.303 247.7 192.434 244.479L192.672 238.621L199.316 238.747L205.96 238.872L206.15 235.788C206.254 234.091 206.407 231.439 206.489 229.893L206.638 227.082L201.88 226.843C199.263 226.711 195.573 226.602 193.679 226.602C191.785 226.601 190.235 226.496 190.235 226.368C190.235 225.872 196.168 217.219 197.104 216.35C197.867 215.641 198.345 215.475 199.191 215.626C200.201 215.807 200.352 215.699 201.069 214.276L201.849 212.73L204.441 212.861C207.36 213.009 207.236 213.167 206.82 209.822L206.606 208.106L205.224 208.102C204.464 208.099 203.271 207.994 202.574 207.867C201.128 207.604 201.128 207.508 202.574 204.102C203.55 201.804 205.163 199.909 207.042 198.854C207.777 198.441 208.377 197.911 208.377 197.674C208.377 197.438 207.566 196.069 206.574 194.63C205.582 193.192 204.586 191.626 204.361 191.149C203.933 190.241 204.135 188.502 204.669 188.502C205.187 188.502 209.049 184.39 209.049 183.838C209.049 183.555 208.919 183.323 208.759 183.323C208.194 183.323 205.858 181.029 205.858 180.473C205.858 180.143 206.477 179.657 207.352 179.301C209.01 178.626 211.737 175.354 211.737 174.037C211.737 173.625 211.057 172.367 210.225 171.243C209.394 170.119 208.713 168.887 208.713 168.504C208.713 167.577 212.386 162.914 213.96 161.844L215.208 160.994L214.397 160.415C211.182 158.119 211.3 156.541 215.044 151.735L216.745 149.552L215.921 148.003C215.397 147.018 215.097 145.884 215.097 144.887C215.097 143.218 215.492 142.625 218.242 140.167L219.54 139.007L218.84 136.66C217.4 131.837 217.524 130.443 219.562 128.532C220.537 127.619 220.566 127.521 220.032 126.934C219.3 126.127 219.317 125.494 220.136 123.121C220.506 122.05 220.808 120.452 220.808 119.569C220.808 118.687 220.972 117.447 221.172 116.815C221.491 115.806 221.43 115.512 220.668 114.413C220.108 113.605 219.8 112.69 219.8 111.836C219.8 110.664 220.067 110.251 222.126 108.237L224.451 105.961L223.47 103.678C222.93 102.421 222.488 100.949 222.488 100.405C222.488 99.1856 223.812 97.3923 225.169 96.7734C226.406 96.2092 226.419 96.0321 225.312 94.8929C224.456 94.0128 223.496 92.312 223.496 91.6763C223.496 91.4991 224.403 89.7967 225.512 87.8931C226.62 85.9894 227.527 84.2052 227.527 83.9282C227.527 83.6512 227.206 82.9455 226.813 82.36C225.073 79.769 225.81 70.8079 228.42 62.833C229.187 60.4874 229.401 60.1514 230.128 60.1514C230.654 60.1514 230.9 60.3208 230.798 60.6137C228.463 67.3395 227.39 73.1659 227.596 77.9964C227.781 82.3331 228.003 82.5525 233.174 83.5069C238.125 84.4207 245.68 84.8063 247.518 84.2388C248.278 84.0041 249.538 83.1221 250.419 82.2088C251.91 80.6622 251.987 80.4824 252.217 77.9605C252.581 73.962 252.044 69.4219 250.508 63.5308C250.065 61.8297 249.702 60.3622 249.702 60.2697C249.702 60.1772 250.098 60.1542 250.581 60.2186C251.371 60.3236 251.539 60.6386 252.227 63.2947C253.566 68.4652 253.862 70.5824 253.882 75.131C253.904 80.0963 253.411 82.6422 252.181 83.9258C251.081 85.0739 251.182 85.9575 252.712 88.5633C255.046 92.5393 255.17 92.9092 254.589 94.1467C254.311 94.7387 253.533 95.7227 252.86 96.3334L251.637 97.4435L252.992 98.3856C254.525 99.4512 255.413 100.669 255.413 101.707C255.413 102.323 254.166 104.948 252.98 106.827C252.643 107.361 252.916 107.786 254.841 109.728C256.081 110.979 257.184 112.388 257.291 112.859C257.536 113.935 256.973 115.182 255.704 116.374C254.786 117.236 254.745 117.384 255.105 118.523C255.318 119.195 255.4 120.386 255.286 121.168C255.147 122.127 255.31 123.412 255.786 125.108L256.492 127.626L255.665 128.409L254.838 129.192L256.134 130.721C256.846 131.561 257.429 132.563 257.429 132.946C257.429 133.94 256.202 137.732 255.39 139.247L254.701 140.533L256.866 142.685C258.057 143.868 259.129 145.263 259.248 145.785C259.491 146.849 258.552 149.537 257.652 150.355C256.799 151.13 256.952 151.632 258.778 154.037C261.73 157.926 262.011 160.047 259.759 161.422C259.189 161.769 258.469 162.272 258.16 162.539C257.674 162.958 257.666 163.053 258.101 163.227C258.804 163.509 263.101 168.477 263.632 169.621C264.248 170.951 263.802 171.94 261.838 173.591C260.917 174.366 260.077 175.223 259.971 175.496C259.433 176.88 262.63 181.209 264.53 181.669C265.146 181.818 265.827 182.205 266.042 182.529C266.367 183.018 266.235 183.267 265.272 183.988C264.633 184.466 263.581 185.1 262.935 185.398L261.759 185.938L262.799 187.384C263.371 188.178 264.589 189.435 265.505 190.176C267.889 192.102 267.786 192.636 264.316 196.353C262.746 198.036 261.461 199.617 261.461 199.867C261.461 200.117 262.027 200.644 262.72 201.038C264.186 201.871 266.207 204.108 266.93 205.7C267.208 206.31 267.667 207.674 267.951 208.729L268.468 210.649L264.964 210.431L261.461 210.212V212.612L263.12 212.361L264.779 212.11L264.961 213.343C265.061 214.022 265.184 214.991 265.234 215.497C265.306 216.232 265.56 216.46 266.5 216.633C269.623 217.207 271.616 219.673 274.406 226.415L275.602 229.303L269.371 229.086L263.14 228.87V240.181L264.904 240.414C265.874 240.543 268.156 240.649 269.975 240.651L273.282 240.654L273.072 244.26C272.957 246.243 272.776 248.99 272.671 250.363L272.479 252.86H267.508L267.504 254.062C267.501 254.723 267.406 255.888 267.292 256.651L267.084 258.038H263.202L260.435 261.552C258.39 264.149 257.459 265.066 256.87 265.066C256.168 265.066 256.099 265.188 256.301 266.083C256.78 268.215 257.035 268.954 257.064 268.302C257.087 267.782 257.403 267.655 258.669 267.655C260.138 267.655 260.368 267.794 262.015 269.666L263.784 271.677L267.451 271.421L271.118 271.165L271.469 275.42C271.663 277.76 271.762 279.739 271.691 279.818C271.619 279.897 255.718 279.362 236.358 278.629C212.979 277.744 199.279 277.372 195.571 277.522L189.989 277.748L189.79 280.361C189.68 281.798 189.661 283.052 189.747 283.146C189.833 283.241 207.101 283.858 228.118 284.517C249.135 285.175 268.41 285.79 270.951 285.881L275.571 286.049L275.567 283.972C275.56 281.041 275.305 280.26 274.271 280.008C272.432 279.56 272.212 279.423 272.212 278.727C272.212 277.895 272.77 277.834 275.192 278.406L276.862 278.8L277.101 282.864L277.34 286.928L279.257 287.994C283.743 290.486 287.391 293.71 291.402 298.725C299.132 308.392 302.196 316.751 305.976 338.488C309.22 357.145 310.38 362.132 313.908 372.578C314.812 375.256 315.552 377.545 315.552 377.664C315.552 377.784 315.266 377.881 314.917 377.881C314.184 377.881 313.934 377.273 311.355 369.189C308.598 360.548 307.727 356.619 304.629 338.859C300.838 317.126 298.038 309.396 290.459 299.742C286.468 294.658 282.386 291.191 277.587 288.811L275.404 287.728L231.963 286.383L188.523 285.038L185.6 286.362C178.986 289.355 174.396 292.683 169.213 298.242C161.251 306.78 157.573 314.8 153.784 331.876C148.358 356.333 147.794 358.425 144.255 367.21C140.474 376.595 139.835 377.882 138.955 377.882C138.518 377.882 138.16 377.794 138.16 377.686V377.689ZM261.796 272.06C261.796 271.836 261.282 271.087 260.654 270.395C259.778 269.431 259.23 269.138 258.302 269.138C257.451 269.138 257.093 269.302 257.093 269.693C257.093 269.998 256.828 270.239 256.505 270.228C256.181 270.218 245.334 269.663 232.399 268.996L208.88 267.784L207.277 268.514C206.395 268.915 205.751 269.329 205.846 269.434C205.997 269.601 254.832 272.301 259.864 272.421C261.07 272.449 261.796 272.314 261.796 272.06ZM254.925 267.011C254.801 266.248 254.496 265.45 254.247 265.238C253.832 264.884 211.841 262.584 211.596 262.902C211.54 262.975 211.412 263.742 211.312 264.607L211.13 266.179L212.694 266.207C213.554 266.223 222.875 266.701 233.407 267.269C243.94 267.837 253.141 268.324 253.855 268.35L255.152 268.398L254.925 267.011ZM259.057 260.728C260.169 259.358 261.031 258.185 260.972 258.12C260.804 257.935 210.949 256.891 207.937 257.01L205.234 257.116L208.412 259.052L211.589 260.988L231.905 262.054C243.079 262.64 253.304 263.142 254.628 263.169L257.035 263.219L259.057 260.728ZM271.336 249.441C271.435 248.373 271.577 246.293 271.651 244.818L271.786 242.136L270.739 242.132C270.163 242.129 254.196 241.715 235.255 241.211C216.315 240.707 199.291 240.293 197.424 240.291L194.029 240.286L193.796 244.584C193.667 246.948 193.646 248.974 193.749 249.087C193.852 249.2 210.602 249.741 230.974 250.288C251.345 250.836 268.719 251.306 269.584 251.334L271.156 251.383L271.336 249.441ZM261.796 234.553V228.82L260.368 228.806C259.583 228.799 247.602 228.398 233.743 227.914C219.884 227.431 208.45 227.145 208.334 227.28C208.125 227.524 207.579 238.756 207.772 238.862C207.951 238.96 251.034 240.168 256.504 240.228L261.796 240.286L261.796 234.553ZM272.883 226.93C272.883 226.087 270.677 222.002 269.368 220.422C268.45 219.314 267.605 218.686 266.752 218.478C265.796 218.245 265.492 218.288 265.492 218.655C265.492 219.042 264.202 219.107 259.025 218.979C255.467 218.891 240.619 218.649 226.028 218.442C206.497 218.165 199.435 217.952 199.257 217.634C198.808 216.834 197.53 218.023 195.332 221.287C194.162 223.024 193.273 224.519 193.355 224.61C193.522 224.793 261.387 227.219 268.431 227.293C271.495 227.325 272.883 227.212 272.883 226.93ZM263.564 216.891C263.652 216.637 263.649 215.878 263.558 215.204C263.44 214.323 263.256 214.038 262.904 214.187C262.634 214.301 262.199 214.394 261.937 214.394C261.675 214.394 261.46 214.737 261.46 215.156C261.46 215.904 261.356 215.914 255.833 215.697C250.907 215.503 212.265 214.598 205.306 214.513C202.913 214.484 202.713 214.542 202.373 215.363C202.173 215.847 202.043 216.263 202.085 216.287C202.128 216.31 214.484 216.533 229.544 216.781C244.604 217.03 258.384 217.26 260.165 217.293C262.49 217.336 263.449 217.223 263.564 216.891ZM259.781 212.215V210.405L253.985 210.186C235.308 209.48 219.756 208.781 211.773 208.29L208.281 208.076L208.476 210.164C208.584 211.313 208.759 212.348 208.864 212.464C209.021 212.637 245.277 213.78 256.673 213.972L259.781 214.024L259.781 212.215ZM265.647 207.089C265.024 205.444 263.37 203.458 261.964 202.668C260.46 201.822 259.445 200.674 259.445 199.819C259.445 199.35 260.54 197.89 262.3 196.012C263.871 194.336 265.156 192.814 265.156 192.628C265.156 192.442 264.489 191.689 263.675 190.954C261.604 189.086 259.677 186.117 259.94 185.202C260.058 184.793 260.687 184.288 261.393 184.038C263.261 183.375 263.284 183.315 262.026 182.374C260.549 181.268 258.097 177.263 258.111 175.977C258.125 174.797 258.469 174.295 260.537 172.452C261.414 171.669 262.133 170.831 262.133 170.59C262.133 169.944 257.788 165.136 256.421 164.269C254.476 163.036 254.683 162.171 257.244 160.824C260.053 159.347 260.101 158.744 257.663 155.47C256.684 154.154 255.663 152.742 255.396 152.332C254.932 151.62 254.142 151.549 238.447 150.802C229.392 150.371 221.153 150.024 220.137 150.031L218.289 150.044L216.021 153.088C214.761 154.779 213.754 156.49 213.754 156.938C213.754 157.493 214.327 158.192 215.597 159.183L217.441 160.623L230.128 161.077C237.106 161.326 245.271 161.633 248.274 161.758L253.733 161.987V163.828L249.618 163.598C247.354 163.471 239.757 163.183 232.736 162.957C225.714 162.731 219.256 162.418 218.385 162.261C217.011 162.014 216.602 162.105 215.311 162.941C213.704 163.982 210.394 167.768 210.394 168.567C210.394 168.836 211.004 169.74 211.75 170.576C213.645 172.703 213.829 174.212 212.458 176.405C211.887 177.319 210.704 178.76 209.829 179.608C207.062 182.289 207.382 182.348 231.897 183.689C260.851 185.272 258.774 185.079 258.774 186.194C258.774 187.098 258.731 187.114 256.842 186.904C255.78 186.786 245.029 186.148 232.952 185.486L210.993 184.284L209.266 186.364C208.316 187.508 207.123 188.726 206.615 189.071C206.106 189.415 205.691 189.897 205.691 190.14C205.691 190.384 206.386 191.613 207.235 192.872L208.78 195.161L212.695 195.168C214.848 195.172 225.076 195.418 235.424 195.715C245.772 196.013 255.56 196.259 257.178 196.263L260.118 196.271V198.222L253.483 197.987C249.833 197.857 239.665 197.582 230.889 197.374C222.112 197.166 213.835 196.955 212.495 196.904C210.22 196.817 210.06 196.862 210.06 197.586C210.06 198.442 209.262 199.324 207.147 200.808C205.558 201.922 204.168 203.765 203.847 205.186L203.628 206.148L208.44 206.386C233.576 207.628 251.085 208.302 261.215 208.42L266.175 208.477L265.65 207.09L265.647 207.089ZM256.559 148.896C258.029 146.973 257.764 145.999 255.052 143.352C253.386 141.726 252.723 140.837 252.832 140.377C253.036 139.516 252.243 139.432 239.286 138.943C233.651 138.73 227.24 138.45 225.041 138.321C221.833 138.133 221.095 138.18 221.308 138.561C221.488 138.881 220.725 139.908 218.962 141.721C216.576 144.176 216.371 144.499 216.586 145.464C217.122 147.862 217.565 148.182 220.396 148.214C222.626 148.24 254.207 149.84 255.299 149.983C255.514 150.011 256.081 149.522 256.559 148.896ZM255.09 135.381L255.826 132.946L254.275 131.213C252.895 129.67 252.202 127.841 252.997 127.841C253.146 127.841 253.537 127.625 253.866 127.36C254.434 126.903 254.435 126.774 253.892 124.717C253.562 123.467 253.388 121.894 253.481 120.991C253.572 120.098 253.444 118.913 253.183 118.228C252.556 116.587 252.569 116.541 253.905 115.632C254.554 115.19 255.247 114.497 255.444 114.091C255.873 113.208 255.577 112.788 252.36 109.725L250.148 107.618L251.352 105.962C252.015 105.051 252.852 103.701 253.213 102.961C253.844 101.666 253.846 101.589 253.264 100.882C252.707 100.205 250.727 99.0312 248.729 98.195C247.926 97.8586 247.952 97.8145 249.727 96.52C252.1 94.7889 253.061 93.8115 253.061 93.131C253.061 92.8276 252.388 91.3903 251.565 89.937C250.743 88.4838 249.913 86.8403 249.721 86.2847C249.402 85.3629 249.306 85.3163 248.613 85.7519C247.372 86.5319 238.939 86.315 233.61 85.3661C228.317 84.4236 228.872 84.47 228.872 84.9698C228.872 85.1926 228.016 86.7765 226.97 88.4894C225.175 91.4278 225.094 91.6575 225.53 92.5542C225.784 93.0768 226.467 93.9639 227.048 94.5253C228.092 95.5339 228.176 95.5492 234.115 95.7972C237.422 95.9353 241.676 96.1522 243.57 96.2791C246.916 96.5035 247.014 96.535 247.014 97.3919V98.2738L243.57 98.0571C241.676 97.9379 237.405 97.6915 234.079 97.5095L228.032 97.1787L226.184 98.1865C224.68 99.0066 224.316 99.388 224.227 100.234C224.09 101.535 225.807 105.579 226.199 104.881C226.416 104.495 228.649 104.571 237.916 105.276C248.561 106.087 249.366 106.196 249.366 106.834C249.366 107.212 249.167 107.605 248.923 107.708C248.68 107.811 243.577 107.498 237.584 107.013L226.688 106.131L224.672 107.981C222.325 110.136 221.145 111.466 221.145 111.956C221.145 112.147 221.702 112.983 222.383 113.813C223.611 115.31 223.617 115.332 223.083 116.496C222.787 117.141 222.46 118.697 222.357 119.952C222.253 121.207 221.919 122.92 221.614 123.759C221.31 124.597 221.16 125.392 221.281 125.526C221.402 125.659 228.111 126.276 236.189 126.897C250.812 128.021 250.877 128.03 250.984 128.858C251.12 129.91 251.914 129.921 235.59 128.637L222.656 127.62L220.989 129.38L219.322 131.14L219.694 133.467C219.898 134.747 220.259 136.293 220.496 136.903C220.909 137.966 220.933 137.976 221.062 137.153C221.194 136.305 221.239 136.296 224.445 136.511C226.232 136.631 231.852 136.892 236.933 137.09C242.015 137.288 247.722 137.551 249.616 137.675C252.85 137.886 253.06 137.948 253.071 138.696L253.081 139.493L253.717 138.654C254.066 138.193 254.683 136.72 255.088 135.381L255.09 135.381Z" fill="#FFC500"/>
<path d="M229.383 225.671C210.535 225.01 194.838 224.408 194.5 224.333C193.988 224.218 194.225 223.696 195.944 221.156C198.181 217.851 198.6 217.416 198.949 218.037C199.251 218.575 265.565 219.618 265.886 219.089C266.276 218.444 267.948 219.223 269.071 220.572C269.676 221.3 270.717 223.038 271.383 224.433L272.594 226.97L268.124 226.921C265.666 226.894 248.232 226.331 229.383 225.671Z" fill="#FFC500"/>
<path d="M229.623 239.234L208.023 238.674L208.25 233.097C208.375 230.03 208.495 227.494 208.517 227.463C208.538 227.432 219.97 227.801 233.921 228.284C247.873 228.766 259.778 229.166 260.378 229.173L261.47 229.184V239.911L256.346 239.852C253.529 239.819 241.502 239.541 229.623 239.234Z" fill="#FFC500"/>
<path d="M230.993 249.926C210.813 249.385 194.214 248.847 194.107 248.73C194.001 248.613 194.018 246.748 194.145 244.586L194.376 240.655L197.602 240.658C199.376 240.66 216.4 241.074 235.432 241.579C254.464 242.083 270.343 242.498 270.72 242.5C271.353 242.503 271.395 242.7 271.299 245.186C271.242 246.661 271.114 248.575 271.015 249.44L270.836 251.012L269.26 250.96C268.394 250.932 251.175 250.467 230.993 249.926Z" fill="#FFC500"/>
<path d="M231.738 255.243C221.021 254.987 209.678 254.761 206.532 254.741L200.811 254.705L200.94 253.223C201.01 252.408 201.198 251.653 201.357 251.545C201.686 251.321 263.59 252.81 264.747 253.07C265.352 253.205 265.503 253.49 265.503 254.495V255.75L258.364 255.729C254.437 255.717 242.456 255.498 231.738 255.243Z" fill="#FFC500"/>
<path d="M232.031 261.687L211.831 260.624L209.287 259.064C207.889 258.206 206.802 257.441 206.872 257.363C207.057 257.16 252.955 258.068 256.859 258.353L260.143 258.593L258.539 260.714L256.935 262.836L254.584 262.793C253.29 262.77 243.141 262.272 232.031 261.687Z" fill="#FFC500"/>
<path d="M233.241 266.886C222.616 266.316 213.387 265.837 212.731 265.824C211.57 265.8 211.542 265.766 211.676 264.505C211.802 263.321 211.907 263.21 212.906 263.21C215.215 263.21 250.635 265.055 252.302 265.263C254.207 265.499 254.209 265.501 254.535 267.001C254.743 267.959 254.692 268.016 253.658 267.972C253.053 267.946 243.866 267.457 233.241 266.886Z" fill="#FFC500"/>
<path d="M232.496 270.665C218.685 269.936 207.383 269.226 207.383 269.088C207.383 268.183 210.515 268.217 232.58 269.363C260.693 270.822 257.801 270.742 257.563 270.059C257.178 268.955 259.073 269.445 260.386 270.789L261.641 272.073L259.625 272.033C258.517 272.01 246.308 271.395 232.496 270.665Z" fill="#FFC500"/>
<path d="M231.831 284.331C208.973 283.587 190.199 282.9 190.112 282.805C190.025 282.709 190.038 281.617 190.14 280.379L190.325 278.128L196.521 277.891C199.929 277.76 204.483 277.742 206.642 277.849C215.315 278.282 269.8 280.271 271.21 280.207C274.792 280.044 275.241 280.421 275.241 283.589C275.241 285.747 275.227 285.781 274.318 285.733C273.809 285.706 254.689 285.075 231.831 284.331Z" fill="#FFC500"/>
<path d="M230.554 404.858C179.277 403.882 134.602 403.072 131.276 403.058L125.228 403.033L125.339 400.258L125.449 397.483L127.355 397.471C132.524 397.439 320.563 400.863 323.53 401.044L326.974 401.253V406.73L325.378 406.682C324.5 406.655 281.828 405.834 230.551 404.858L230.554 404.858Z" fill="#FFC500"/>
<path d="M216.612 424.836C169.493 424.27 129.105 423.794 126.862 423.778L122.783 423.749L122.626 422.362C122.539 421.599 122.504 420.925 122.548 420.865C122.677 420.688 327.424 423.378 327.583 423.559C327.666 423.65 327.544 424.229 327.312 424.846L326.89 425.968L314.584 425.917C307.816 425.889 263.726 425.402 216.607 424.836L216.612 424.836Z" fill="#FFC500"/>
<path d="M222.399 430.915L133.442 429.311L131.549 427.819L129.655 426.326L132.146 426.335C147.359 426.392 320.698 428.532 320.818 428.664C320.907 428.762 320.426 429.691 319.749 430.728L318.519 432.614L314.938 432.565C312.969 432.539 271.328 431.796 222.401 430.914L222.399 430.915Z" fill="#FFC500"/>
<path d="M225.179 440.728C181.293 440.162 141.796 439.686 137.407 439.67L129.428 439.641V437.431L131.98 437.668C133.921 437.849 134.598 437.789 134.807 437.415C135.035 437.009 148.52 437.096 213.812 437.928C311.049 439.168 318.316 439.277 318.647 439.503C318.794 439.603 318.914 440.174 318.914 440.772V441.86L311.942 441.809C308.108 441.781 269.065 441.294 225.179 440.728Z" fill="#FFC500"/>
<path d="M223.676 446.28C175.633 445.714 132.81 445.238 128.514 445.221L120.703 445.192V441.445L124.314 441.632C126.301 441.735 170.636 442.416 222.837 443.144C275.038 443.873 319.109 444.617 320.772 444.798C322.435 444.979 324.891 445.142 326.231 445.16L328.667 445.192V447.411L319.848 447.36C314.997 447.331 271.719 446.845 223.676 446.28Z" fill="#FFC500"/>
<path d="M365.094 514.504C364.952 514.348 359.197 514.101 352.305 513.955C335.587 513.6 93.0171 509.556 88.4539 509.556H84.8721V503.279H83.0207C81.4955 503.279 80.9091 502.952 79.6912 501.425C78.8783 500.406 77.5553 498.137 76.7515 496.384C75.3161 493.253 75.3033 493.158 76.0368 491.045C77.9516 485.529 87.0351 478.969 94.2109 477.92L96.661 477.562L96.9912 473.943L97.3213 470.323H101.887L101.348 468.391C101.052 467.328 100.302 465.857 99.6811 465.122C98.1359 463.291 96.7496 460.183 96.7496 458.549C96.7496 457.804 97.0631 456.526 97.4463 455.711C99.0594 452.276 105.641 447.545 110.528 446.306C113.714 445.498 117.655 445.576 117.655 446.448C117.655 446.961 116.625 447.235 113.932 447.439C109.116 447.802 104.083 450.261 100.61 453.947C97.8667 456.858 97.5994 458.15 99.0843 461.321C100.793 464.969 101.679 465.615 104.972 465.615C106.599 465.615 161.59 466.444 227.173 467.457C344.711 469.273 346.432 469.285 347.61 468.298C348.546 467.515 348.783 466.889 348.703 465.423C348.438 460.619 344.503 456.087 337.058 452.013L332.027 449.26L324.5 449.342C320.36 449.387 276.242 448.95 226.46 448.371C176.678 447.792 132.046 447.316 127.276 447.313L118.605 447.307V439.46H127.754L127.441 437.305L127.128 435.15L130.706 435.519L134.284 435.888V434.274C134.284 433.188 134.518 432.66 134.997 432.66C135.389 432.66 135.71 433.105 135.71 433.649C135.71 434.575 136.314 434.657 145.331 434.951C150.623 435.123 186.703 435.616 225.509 436.046C264.316 436.476 300.075 436.95 304.975 437.1L313.883 437.371V436.099C313.883 434.949 313.646 434.802 311.389 434.554C310.017 434.404 269.34 433.644 220.996 432.865L133.098 431.45L129.431 428.655C126.186 426.182 125.488 425.86 123.373 425.86C121.173 425.86 120.982 425.76 120.982 424.617C120.982 423.934 120.848 422.639 120.685 421.74C120.39 420.118 120.365 420.105 117.414 420.105H114.44L114.156 417.359C114.001 415.849 113.75 412.259 113.599 409.382C113.448 406.505 113.226 403.621 113.106 402.974C112.889 401.81 112.945 401.797 118.122 401.797C122.459 401.797 123.358 401.932 123.358 402.582C123.358 403.221 122.566 403.366 119.081 403.366H114.805L114.822 405.59C114.846 408.758 115.631 418.05 115.899 418.345C116.134 418.604 301.218 421.123 321.307 421.141L332.772 421.152L333.104 416.051C333.286 413.246 333.54 410.457 333.669 409.853C333.872 408.899 333.541 408.645 331.137 407.904C329.616 407.436 327.944 407.176 327.421 407.328C326.563 407.577 171.849 404.943 138.204 404.106L124.307 403.761L124.252 400.556C124.221 398.793 124.099 397.763 123.979 398.266C123.716 399.374 123.877 399.371 121.633 398.322L119.793 397.463L121.218 396.973C122.002 396.704 122.94 396.379 123.302 396.252C123.834 396.066 123.803 395.829 123.142 395.025C122.692 394.477 122.397 393.607 122.487 393.092C122.722 391.748 125.529 389.833 128.677 388.869C132.909 387.573 134.616 385.326 139.19 375.023C141.327 370.212 143.342 366.264 143.668 366.251C144.624 366.212 144.411 366.941 141.501 373.689C136.09 386.236 133.786 389.112 127.797 390.795C126.711 391.1 125.322 391.799 124.709 392.35L123.595 393.351L124.615 394.406C125.177 394.987 125.711 395.674 125.803 395.935C125.899 396.207 165.838 397.105 219.808 398.049C271.419 398.951 316.71 399.82 320.454 399.978C327.218 400.265 327.26 400.26 326.944 399.164C326.735 398.439 326.925 397.697 327.498 397C328.35 395.964 328.339 395.912 327.014 394.75C326.268 394.095 324.855 393.294 323.874 392.971C321.131 392.066 319.869 390.67 317.798 386.249C316.188 382.811 310.557 367.48 310.557 366.533C310.557 366.364 310.825 366.229 311.151 366.232C311.479 366.235 312.784 369.347 314.058 373.163C318.367 386.068 320.854 390.793 323.747 391.577C325.852 392.147 328.949 394.357 329.215 395.479C329.351 396.05 329.171 396.94 328.815 397.457C327.884 398.808 327.963 399.01 329.681 399.683L331.225 400.286L330.044 400.996C329.394 401.386 328.699 401.594 328.499 401.458C328.3 401.323 328.134 401.755 328.131 402.42C328.127 403.084 327.987 404.194 327.818 404.886C327.601 405.782 327.674 406.035 328.074 405.763C328.502 405.472 334.465 407.193 335.156 407.808C335.32 407.954 334.336 420.482 334.033 422.096C333.827 423.198 333.631 423.273 331.764 422.965C330.224 422.711 329.718 422.8 329.71 423.328C329.705 423.713 329.359 424.911 328.943 425.99C328.226 427.848 328.071 427.951 326.021 427.951C323.901 427.951 323.81 428.022 321.634 431.352C319.489 434.634 319.341 434.752 317.361 434.752C315.666 434.752 315.309 434.924 315.309 435.74C315.309 436.471 315.772 436.818 317.091 437.075C320.328 437.707 320.399 437.774 320.73 440.52L321.043 443.121H330.513V445.506C330.513 446.9 330.703 447.761 330.97 447.58C331.51 447.212 341.47 452.579 343.693 454.435C347.25 457.405 349.76 461.537 350.322 465.345C350.562 466.977 350.39 467.403 348.834 469.018C347.848 470.043 346.582 470.845 345.953 470.845C345.248 470.845 344.719 471.234 344.529 471.891C344.363 472.467 343.907 472.938 343.515 472.938C343.033 472.938 342.894 472.618 343.086 471.953C343.359 471.005 342.732 470.954 326.607 470.62C294.343 469.952 102.787 467.166 102.6 467.363C102.501 467.472 102.635 468.183 102.897 468.942C103.362 470.288 103.476 470.322 107.543 470.328C109.836 470.331 165.163 471.035 230.495 471.891C295.825 472.748 349.865 473.452 350.584 473.455C351.876 473.461 351.89 473.499 351.89 476.891V480.321L355.521 482.142C365.999 487.399 371.11 492.697 372.83 500.084C373.406 502.559 373.38 502.869 372.487 504.196C370.582 507.027 368.814 507.915 365.7 507.604L362.886 507.323L362.563 509.219C362.1 511.936 362.47 512.516 364.919 512.921C366.344 513.156 367.095 513.54 367.095 514.033C367.095 514.752 365.634 515.095 365.096 514.502L365.094 514.504ZM360.611 511.779C360.74 511.275 360.985 510.099 361.156 509.163L361.467 507.463H355.195C346.384 507.463 115.517 503.935 99.4729 503.555L86.2881 503.243V507.986L94.4841 508.023C102.235 508.058 356.393 512.478 359.093 512.625C359.937 512.671 360.447 512.385 360.602 511.779H360.611ZM369.955 504.496C371.315 503.236 371.435 502.895 371.167 501.052C370.17 494.187 365.549 489.498 353.552 483.179L348.801 480.676L245.698 479.727C188.991 479.205 133.026 478.671 121.333 478.541C103.391 478.342 100.071 478.418 100.071 479.032C100.071 479.524 99.7247 479.665 99.0017 479.468C97.207 478.978 90.5505 480.678 87.0181 482.528C83.2347 484.509 78.6428 488.847 77.7135 491.317C77.1379 492.847 77.2079 493.223 78.6285 496.24C79.4745 498.036 80.5747 499.913 81.0733 500.409C81.9169 501.25 91.6844 501.467 221.573 503.535C298.345 504.757 362.804 505.787 364.8 505.825C368.106 505.888 368.586 505.764 369.955 504.496ZM349.989 477.124V475.032L347.732 475.027C346.491 475.024 291.702 474.321 225.98 473.463C160.257 472.605 104.748 471.9 102.626 471.898L98.7668 471.894L98.4527 474.056C98.28 475.245 98.2421 476.332 98.3685 476.471C98.4949 476.61 153.718 477.252 221.086 477.897C288.455 478.542 345.018 479.103 346.782 479.143L349.989 479.217L349.989 477.124ZM329.083 446.296V444.76L323.976 444.484C321.167 444.333 277.496 443.639 226.931 442.943C176.365 442.247 131.612 441.499 127.48 441.282L119.966 440.888L120.115 443.183L120.265 445.477L131.668 445.634C165.631 446.101 303.298 447.693 315.191 447.757L329.088 447.831V446.296L329.083 446.296ZM319.285 440.639C319.113 439.848 318.91 439.119 318.835 439.019C318.628 438.746 321.108 438.784 225.03 437.594C165.069 436.851 134.89 436.654 134.684 437.003C134.501 437.311 133.282 437.402 131.714 437.224L129.054 436.922V439.985L135.35 440.031C138.812 440.057 172.86 440.493 211.014 441C249.167 441.507 289.206 441.956 299.991 441.999L319.599 442.077L319.285 440.639ZM320.407 430.683L321.946 428.215L318.507 428.089C311.832 427.844 128.903 425.85 128.757 426.021C128.67 426.116 129.612 426.993 130.849 427.97L133.099 429.745L223.848 431.392C273.761 432.297 315.561 433.064 316.736 433.095C318.77 433.148 318.948 433.032 320.413 430.683L320.407 430.683ZM327.878 424.684L328.528 422.984L317.046 422.833C189.049 421.146 122.148 420.295 122.055 420.352C121.998 420.392 122.079 421.294 122.236 422.358L122.521 424.292L133.505 424.339C139.547 424.365 177.844 424.801 218.61 425.307C259.376 425.814 300.491 426.263 309.977 426.306L327.224 426.384L327.873 424.684H327.878ZM327.367 404.079C327.54 402.456 327.578 401.014 327.45 400.873C327.228 400.629 146.242 397.148 131.781 397.11L124.772 397.092V403.369L129.405 403.408C131.953 403.429 174.126 404.221 223.124 405.168C272.121 406.114 315.548 406.92 319.628 406.959L327.046 407.03L327.361 404.079H327.367Z" fill="#FFC500"/>
<path d="M225.499 471.34C167.093 470.539 115.826 469.866 111.572 469.843C105.061 469.809 103.791 469.675 103.555 468.996C103.4 468.552 103.374 468.078 103.497 467.942C103.715 467.702 296.4 470.468 327.051 471.152C339.638 471.432 342.374 471.622 342.374 472.217C342.374 472.796 341.297 472.927 337.029 472.869C334.089 472.829 283.897 472.141 225.493 471.34H225.499Z" fill="#FFC500"/>
<path d="M220.856 477.374C153.883 476.733 98.9865 476.097 98.8628 475.962C98.7398 475.827 98.7743 474.972 98.9395 474.063L99.2398 472.41L103.338 472.415C105.592 472.417 161.102 473.121 226.693 473.98C292.285 474.838 346.753 475.542 347.732 475.544C349.394 475.549 349.514 475.654 349.514 477.118V478.687L346.069 478.613C344.175 478.573 287.829 478.015 220.856 477.374Z" fill="#FFC500"/>
<path d="M253.543 503.519C69.3141 500.582 82.5513 500.87 81.4471 499.779C80.3899 498.731 77.7577 493.927 77.7506 493.032C77.748 492.721 78.4042 491.374 79.2085 490.037C80.8898 487.242 85.7008 483.486 89.6406 481.891C92.931 480.559 97.9293 479.577 99.1842 480.015C99.7744 480.222 100.364 480.055 100.706 479.586C101.197 478.914 116.371 478.962 224.798 479.979L348.332 481.139L354.746 484.544C358.274 486.417 362.396 488.97 363.906 490.217C366.954 492.736 369.517 496.588 370.465 500.072C371.082 502.342 371.074 502.376 369.561 503.864C368.141 505.261 367.778 505.361 364.36 505.296C362.339 505.258 312.471 504.458 253.543 503.519Z" fill="#FFC500"/>
<path d="M229.942 509.787C159.908 508.552 99.0264 507.524 94.6442 507.503L86.6859 507.464V503.692L97.4951 504.017C103.44 504.195 165.071 505.192 234.456 506.231C303.837 507.27 360.626 508.149 360.654 508.184C360.682 508.22 360.606 509.131 360.483 510.21C360.278 512.028 360.152 512.167 358.769 512.102C357.948 512.064 299.976 511.022 229.942 509.787Z" fill="#FFC500"/>
<path d="M220.204 544.998C81.5402 542.728 61.638 542.303 60.9329 541.6C60.4845 541.164 59.3281 539.118 58.3629 537.054C56.3451 532.739 56.39 531.791 58.7672 528.5C62.9194 522.752 71.0497 518.255 78.5417 517.563C80.9581 517.339 82.3565 516.96 82.7098 516.432C83.1847 515.723 98.3775 515.88 224.779 517.894L366.317 520.15L372.731 523.717C376.259 525.679 380.428 528.418 381.996 529.804C385.448 532.856 388.424 537.583 389.311 541.423L389.967 544.263L388.245 546C386.569 547.69 386.418 547.735 382.597 547.669C380.437 547.632 307.365 546.43 220.213 544.998L220.204 544.998Z" fill="#FFC500"/>
<path d="M210.452 551.633C137.805 550.687 74.6755 549.895 70.1655 549.873L61.9696 549.834V545.72L72.3037 545.977C77.9874 546.118 149.012 547.284 230.138 548.568C311.262 549.852 377.728 550.998 377.821 551.114C377.927 551.23 377.872 551.813 377.7 552.41C377.39 553.484 377.208 553.495 359.958 553.425C350.372 553.385 283.09 552.579 210.439 551.633L210.452 551.633Z" fill="#FFC500"/>
<path d="M210.226 558.165C142.936 557.659 79.4755 557.224 69.2077 557.198L50.5321 557.15L50.6782 554.927L50.8243 552.704L60.802 552.588C73.7127 552.437 386.874 556.336 387.14 556.65C387.248 556.782 387.485 557.418 387.666 558.066L387.994 559.243L360.285 559.164C345.046 559.121 277.521 558.672 210.234 558.166L210.226 558.165Z" fill="#FFC500"/>
<path d="M228.984 597.14C137.783 596.194 56.2633 595.403 47.8421 595.381L32.519 595.341V589.587L38.5769 589.609C61.853 589.695 407.939 594.716 408.165 594.971C408.325 595.148 408.314 596.127 408.14 597.147L407.824 599.003L401.313 598.931C397.732 598.892 320.182 598.085 228.978 597.14L228.984 597.14Z" fill="#FFC500"/>
<path d="M192.16 603.409C103.18 602.749 28.1128 602.134 25.3457 602.044L20.3168 601.879L21.0268 599.072L21.7369 596.266L25.5791 596.635C27.6923 596.838 29.529 597.186 29.6604 597.409C29.9998 597.986 409.865 601.654 410.49 601.087C410.783 600.819 411.831 600.86 412.995 601.185C414.765 601.68 414.996 601.918 414.996 603.25V604.756L384.469 604.683C367.679 604.642 281.14 604.069 192.166 603.409L192.16 603.409Z" fill="#FFC500"/>
<path d="M144.333 634.592C65.367 634.426 0.600928 634.124 0.414677 633.92C0.0884458 633.561 2.90299 606.847 3.31487 606.395C3.42762 606.27 7.2123 606.054 11.7253 605.914C16.2383 605.773 20.0463 605.462 20.1876 605.221C20.3289 604.981 108.525 605.367 216.177 606.079L411.913 607.374L421.772 608.783C429.812 609.931 431.631 610.341 431.634 611.003C431.636 611.45 432.168 616.758 432.816 622.8C433.464 628.842 433.996 634.079 434 634.439C434.007 635.154 416.733 635.164 144.327 634.592L144.333 634.592Z" fill="#FFC500"/>
<path d="M393.138 563.438C392.903 563.337 392.669 563.233 392.432 563.135C392.078 563.005 391.722 562.88 391.368 562.751C391.22 562.64 390.633 562.582 390.601 562.338C390.693 562.291 390.779 562.22 390.879 562.197C391.014 562.167 391.817 562.464 391.985 562.521C392.131 562.623 392.676 562.661 392.706 562.906C392.556 563.093 392.272 563.082 392.372 562.825C392.453 562.663 392.585 562.539 392.716 562.428C392.936 562.273 393.172 562.078 393.431 562.208C393.61 562.336 393.678 562.531 393.674 562.758C393.645 563.003 393.496 563.162 393.317 563.292C392.997 563.533 392.694 563.559 392.333 563.44C392.123 563.356 391.965 563.203 391.839 563.005C391.779 562.901 391.727 562.967 391.647 563.011C391.475 563.112 391.319 563.099 391.145 563.015C390.979 562.916 390.995 562.772 391.103 562.628C391.322 562.423 391.562 562.299 391.844 562.321C392.142 562.377 391.67 562.542 391.531 562.52C391.001 562.363 391.495 562.252 391.804 562.354C392.143 562.484 391.969 562.417 392.327 562.556L392.131 562.703C391.773 562.564 391.947 562.631 391.608 562.502C391.357 562.42 391.39 562.503 391.511 562.276C391.534 562.233 391.589 562.326 391.632 562.342C391.662 562.353 391.694 562.36 391.724 562.369C391.774 562.375 391.903 562.326 391.874 562.37C391.768 562.537 391.763 562.488 391.651 562.473C391.538 562.467 391.111 562.617 391.397 562.469C391.424 562.454 391.346 562.506 391.321 562.525C391.214 562.652 391.18 562.778 391.343 562.869C391.514 562.948 391.667 562.947 391.833 562.846C391.922 562.797 391.981 562.762 392.044 562.871C392.166 563.065 392.323 563.212 392.529 563.291C392.663 563.333 392.788 563.362 392.929 563.357C392.975 563.356 393.021 563.351 393.066 563.344C393.108 563.337 393.164 563.277 393.19 563.314C393.214 563.347 393.127 563.362 393.096 563.386C393.274 563.265 393.427 563.114 393.462 562.875C393.47 562.658 393.407 562.471 393.234 562.352C392.985 562.244 392.804 562.485 393.019 562.277C393.044 562.254 392.964 562.313 392.936 562.33C392.805 562.438 392.673 562.56 392.588 562.717C392.465 562.95 392.82 562.801 392.494 563.024C392.351 562.814 392.011 562.772 391.789 562.667C391.479 562.563 391.166 562.466 390.849 562.387C390.796 562.374 390.7 562.41 390.687 562.351C390.673 562.289 390.771 562.263 390.812 562.218C390.993 562.415 391.314 562.497 391.564 562.603C391.919 562.733 392.275 562.857 392.629 562.988C392.865 563.087 393.1 563.19 393.335 563.292L393.138 563.438Z" fill="#FFC500"/>
<path d="M270.505 589.26L146.318 587.535V560.121L158.137 560.286C164.637 560.378 218.116 560.752 276.978 561.117C335.841 561.483 385.521 561.848 387.378 561.929C389.417 562.017 390.735 562.178 390.704 562.335C390.603 562.844 392.488 563.699 393.249 563.489C393.951 563.295 396.761 564.531 401.286 567.027C405.052 569.103 407.209 570.663 409.117 572.69C411.892 575.638 413.557 579.115 414.756 584.468L415.302 586.906L414.5 587.838C414.045 588.366 412.758 589.266 411.531 589.912L409.366 591.054L402.029 591.019C397.993 591 338.807 590.209 270.505 589.26Z" fill="#FFC500"/>
<path d="M117.101 445.151C117.091 445.346 117.098 445.528 117.212 445.684C117.325 445.805 117.457 445.812 117.601 445.771C117.766 445.729 117.888 445.587 118.062 445.591C118.224 445.672 118.268 445.876 118.289 446.054C118.298 446.126 118.297 446.197 118.297 446.269C118.289 446.523 118.311 446.777 118.343 447.028C118.452 447.256 118.052 447.181 118.207 447.139C118.283 447.118 118.359 447.106 118.436 447.09C118.501 447.311 118.352 447.639 118.096 447.453L118.296 447.312C118.403 447.381 118.384 447.342 118.209 447.49C118.202 447.496 118.27 447.204 118.227 447.214C118.289 447.159 118.462 446.978 118.413 447.048C118.323 447.177 118.136 447.4 118.133 447.15C118.1 446.898 118.077 446.643 118.085 446.387C118.085 446.316 118.088 446.246 118.078 446.176C118.061 446.014 118.026 445.808 117.87 445.745C117.701 445.756 117.577 445.895 117.412 445.93C117.259 445.964 117.123 445.946 117.008 445.818C116.892 445.656 116.878 445.472 116.889 445.27L117.101 445.151Z" fill="#FFC500"/>
<path d="M134.262 432.629C134.368 432.443 134.448 432.241 134.543 432.048C134.634 431.863 134.845 431.619 135.032 431.793C135.082 431.83 135.316 431.856 134.941 431.889C134.895 431.893 134.975 431.795 134.988 431.748C134.991 431.585 135.273 431.384 135.118 431.78C134.969 432.094 134.766 432.084 134.73 431.735C134.725 431.598 134.659 431.41 134.93 431.526C134.993 431.553 134.929 431.675 134.929 431.749C134.926 431.825 134.928 431.905 134.934 431.978L134.728 432.108C134.695 432.038 134.731 431.943 134.717 431.868C134.718 431.865 134.718 431.645 134.719 431.645C134.983 431.237 134.925 431.428 134.941 431.614C134.946 431.666 134.949 431.734 134.964 431.785C134.971 431.806 135.002 431.825 134.992 431.844C134.759 432.259 134.839 431.959 134.902 431.889C134.963 431.735 135.288 431.253 135.203 431.635C135.161 431.803 134.994 432.078 134.831 431.932C134.806 431.91 134.733 431.902 134.752 431.875C135.007 431.513 134.831 431.887 134.759 431.941C134.664 432.134 134.583 432.336 134.48 432.525L134.262 432.629Z" fill="#FFC500"/>
<path d="M122.382 401.929C122.943 401.965 123.504 401.984 124.064 402.025C124.779 402.079 125.49 402.176 126.203 402.254C126.324 402.266 126.445 402.278 126.567 402.29L126.374 402.442C126.252 402.43 126.131 402.417 126.01 402.405C125.297 402.327 124.586 402.23 123.871 402.177C123.311 402.137 122.751 402.116 122.19 402.083L122.382 401.929Z" fill="#FFC500"/>
<path d="M198.905 270.094C199.405 270.002 199.912 269.954 200.418 269.927C200.759 269.912 201.1 269.907 201.44 269.901L201.249 270.055C200.908 270.061 200.568 270.067 200.227 270.081C199.721 270.109 199.215 270.158 198.715 270.252L198.905 270.094Z" fill="#FFC500"/>
<path d="M232.776 276.393C215.464 275.702 200.794 275.128 200.175 275.118C199.063 275.1 199.044 275.085 198.106 273.466L197.159 271.831L198.565 271.367C199.613 271.021 199.938 270.804 199.837 270.517C199.753 270.275 199.845 270.131 200.085 270.131C200.333 270.131 200.466 270.359 200.466 270.785C200.466 271.346 200.576 271.44 201.238 271.448C201.663 271.454 216.229 272.202 233.606 273.112C250.983 274.022 265.238 274.734 265.281 274.694C265.324 274.654 265.24 274.376 265.094 274.076C264.834 273.541 264.872 273.531 267.083 273.531H269.338L269.456 274.381C269.521 274.848 269.62 275.79 269.675 276.473L269.776 277.716L267.014 277.683C265.495 277.664 250.086 277.084 232.774 276.393L232.776 276.393Z" fill="#FFC500"/>
<path d="M221.375 419.593C163.819 418.831 116.558 418.199 116.35 418.189C116.028 418.173 115.914 417.229 115.565 411.697C115.341 408.137 115.101 404.9 115.033 404.505L114.908 403.786H123.498V403.001C123.498 402.569 123.605 402.216 123.736 402.216C123.866 402.216 123.973 402.632 123.973 403.14C123.973 403.648 124.107 404.115 124.27 404.177C124.434 404.24 170.313 405.124 226.224 406.143C300.954 407.504 327.925 407.917 328.046 407.701C328.161 407.496 328.969 407.663 330.739 408.257C332.829 408.958 333.268 409.194 333.268 409.617C333.268 410.278 332.595 418.484 332.421 419.936L332.289 421.048L329.156 421.013C327.432 420.995 278.931 420.355 221.375 419.593Z" fill="#FFC500"/>
<path d="M225.419 435.689C133.983 434.477 136.778 434.521 136.273 434.275C135.995 434.139 135.857 433.778 135.857 433.184C135.857 432.444 135.77 432.297 135.334 432.297C135.003 432.297 134.894 432.205 135.038 432.047C135.262 431.8 312.628 434.772 313.254 435.034C313.417 435.102 313.55 435.514 313.55 435.95V436.743L306.602 436.708C302.78 436.689 266.245 436.231 225.414 435.689H225.419Z" fill="#FFC500"/>
<path d="M217.583 466.931C159.765 466.024 110.171 465.274 107.372 465.264L102.283 465.246L101.256 464.066C100.691 463.417 99.7894 461.924 99.2526 460.749C98.3217 458.711 98.2899 458.562 98.5638 457.548C98.9952 455.951 102.391 452.384 104.978 450.811C108.496 448.672 112.486 447.467 116.066 447.463C117.489 447.462 117.789 447.385 117.88 447.003C117.971 446.618 117.993 446.628 118.016 447.069C118.043 447.579 118.238 447.594 126.062 447.672C130.471 447.716 176.574 448.22 228.512 448.791C280.449 449.362 324.922 449.815 327.339 449.797C329.756 449.78 332.001 449.881 332.328 450.022C332.654 450.163 334.391 451.058 336.188 452.01L339.455 453.741V468.647L331.081 468.613C326.475 468.595 275.401 467.838 217.585 466.931L217.583 466.931Z" fill="#FFC500"/>
<path d="M339.644 468.718C339.565 468.63 339.5 465.271 339.5 461.251C339.5 454.945 339.547 453.964 339.847 454.09C340.038 454.171 340.926 454.767 341.82 455.416C344.948 457.685 347.097 460.483 348.045 463.521C348.847 466.093 348.594 467.415 347.147 468.219C346.487 468.585 339.92 469.022 339.644 468.718Z" fill="#FFC500"/>
<path d="M368.167 511.882C367.83 512.598 367.585 513.363 367.345 514.124C366.999 515.232 366.695 516.355 366.4 517.481L366.186 517.593C366.481 516.466 366.785 515.343 367.131 514.234C367.371 513.472 367.616 512.707 367.95 511.987L368.167 511.882Z" fill="#FFC500"/>
<path d="M244.004 515.704C184.75 514.725 134.905 513.917 133.239 513.907L130.21 513.889V510.555L133.358 510.657C135.089 510.713 187.286 511.584 249.35 512.591C345.959 514.159 362.509 514.482 364.39 514.837C366.767 515.286 366.869 515.395 366.172 516.743L365.756 517.547L358.748 517.516C354.894 517.498 303.258 516.683 244.004 515.704Z" fill="#FFC500"/>
<path d="M89.4559 586.697C65.7116 586.338 42.7388 586.03 38.4059 586.012L30.527 585.978L28.6616 583.852C26.6518 581.56 24.6147 577.745 24.6147 576.273C24.6147 574.535 27.2549 571.31 30.8301 568.681C36.9024 564.216 44.7231 561.513 51.8285 561.424C55.2433 561.382 55.3597 561.353 55.4662 560.527L55.5761 559.674L98.1343 559.892C121.541 560.012 141.939 560.203 143.464 560.316L146.235 560.523V587.458L139.432 587.404C135.69 587.374 113.2 587.056 89.4559 586.697Z" fill="#FFC500"/>
<path d="M79.1056 505.437C79.6935 505.61 80.28 505.789 80.872 505.945C81.7858 506.195 82.7101 506.393 83.6371 506.574C84.492 506.741 85.3509 506.875 86.2162 506.952L85.9433 507.167C85.0774 507.088 84.2181 506.952 83.3625 506.785C82.4351 506.604 81.5104 506.405 80.5962 506.155C80.0039 505.998 79.4168 505.819 78.8285 505.646L79.1056 505.437Z" fill="#FFC500"/>
<path d="M108.267 513.463C101.153 513.328 91.6576 513.194 87.1663 513.165L79.0002 513.112L78.3191 511.417C77.9445 510.485 77.7145 509.638 77.8081 509.535C77.9016 509.432 79.1993 509.255 80.6919 509.143C83.4021 508.938 83.4057 508.937 83.4057 507.893C83.4057 507.116 83.535 506.902 83.9096 507.061C84.2155 507.19 84.4136 507.749 84.4136 508.484V509.694L89.5371 509.92C92.3551 510.045 102.636 510.253 112.383 510.384L130.105 510.621V513.852L125.654 513.781C123.205 513.742 115.381 513.599 108.267 513.463Z" fill="black"/>
</svg>
