<?xml version="1.0" encoding="UTF-8"?>
<!DOCTYPE svg PUBLIC "-//W3C//DTD SVG 1.1//EN" "http://www.w3.org/Graphics/SVG/1.1/DTD/svg11.dtd">
<!-- Creator: CorelDRAW -->
<svg xmlns="http://www.w3.org/2000/svg" xml:space="preserve" width="1.70666in" height="1.70666in" version="1.1" style="shape-rendering:geometricPrecision; text-rendering:geometricPrecision; image-rendering:optimizeQuality; fill-rule:evenodd; clip-rule:evenodd"
viewBox="0 0 1707 1707"
 xmlns:xlink="http://www.w3.org/1999/xlink">
 <defs>
  <style type="text/css">
   <![CDATA[
    .fil4 {fill:#624A31}
    .fil10 {fill:#FFB655}
    .fil12 {fill:url(#id0)}
    .fil11 {fill:url(#id1)}
    .fil13 {fill:url(#id2)}
    .fil0 {fill:url(#id3)}
    .fil2 {fill:url(#id4)}
    .fil3 {fill:url(#id5)}
    .fil5 {fill:url(#id6)}
    .fil1 {fill:url(#id7)}
    .fil6 {fill:url(#id8)}
    .fil14 {fill:url(#id9)}
    .fil8 {fill:url(#id10)}
    .fil9 {fill:url(#id11)}
    .fil7 {fill:url(#id12)}
   ]]>
  </style>
  <linearGradient id="id0" gradientUnits="userSpaceOnUse" x1="1035.72" y1="1406.59" x2="1035.72" y2="1354.46">
   <stop offset="0" style="stop-opacity:1; stop-color:#E6E6E6"/>
   <stop offset="1" style="stop-opacity:1; stop-color:#CCCCCC"/>
  </linearGradient>
  <linearGradient id="id1" gradientUnits="userSpaceOnUse" xlink:href="#id0" x1="1035.72" y1="1314.7" x2="1035.72" y2="1262.57">
  </linearGradient>
  <linearGradient id="id2" gradientUnits="userSpaceOnUse" xlink:href="#id0" x1="1035.72" y1="1498.46" x2="1035.72" y2="1446.33">
  </linearGradient>
  <linearGradient id="id3" gradientUnits="userSpaceOnUse" x1="855.35" y1="248.248" x2="855.35" y2="586.713">
   <stop offset="0" style="stop-opacity:1; stop-color:#FF9911"/>
   <stop offset="1" style="stop-opacity:1; stop-color:#FF6600"/>
  </linearGradient>
  <linearGradient id="id4" gradientUnits="userSpaceOnUse" xlink:href="#id3" x1="853.323" y1="759.398" x2="853.323" y2="1223.22">
  </linearGradient>
  <linearGradient id="id5" gradientUnits="userSpaceOnUse" x1="853.339" y1="1589.95" x2="853.339" y2="1171.09">
   <stop offset="0" style="stop-opacity:1; stop-color:#8E4D21"/>
   <stop offset="1" style="stop-opacity:1; stop-color:#663300"/>
  </linearGradient>
  <linearGradient id="id6" gradientUnits="userSpaceOnUse" x1="855.315" y1="0" x2="855.315" y2="300.37">
   <stop offset="0" style="stop-opacity:1; stop-color:#E0AC69"/>
   <stop offset="1" style="stop-opacity:1; stop-color:#F1C27D"/>
  </linearGradient>
  <linearGradient id="id7" gradientUnits="userSpaceOnUse" xlink:href="#id5" x1="854.913" y1="824.681" x2="854.913" y2="627.22">
  </linearGradient>
  <linearGradient id="id8" gradientUnits="userSpaceOnUse" xlink:href="#id6" x1="854.909" y1="533.815" x2="854.909" y2="679.362">
  </linearGradient>
  <linearGradient id="id9" gradientUnits="userSpaceOnUse" xlink:href="#id3" x1="853.331" y1="1537.81" x2="853.331" y2="1706.66">
  </linearGradient>
  <linearGradient id="id10" gradientUnits="userSpaceOnUse" xlink:href="#id0" x1="853.323" y1="1017.37" x2="853.323" y2="965.244">
  </linearGradient>
  <linearGradient id="id11" gradientUnits="userSpaceOnUse" xlink:href="#id0" x1="853.323" y1="1115.75" x2="853.323" y2="1063.62">
  </linearGradient>
  <linearGradient id="id12" gradientUnits="userSpaceOnUse" xlink:href="#id0" x1="853.323" y1="918.996" x2="853.323" y2="866.87">
  </linearGradient>
 </defs>
 <g id="Layer_x0020_1">
  <metadata id="CorelCorpID_0Corel-Layer"/>
  <path class="fil0" d="M752 586c-2,0 -3,0 -5,0 -14,-3 -24,-16 -21,-31l48 -285c3,-13 13,-22 26,-22l114 0c12,0 23,10 25,22l46 286c2,14 -8,27 -22,30 -14,2 -199,0 -211,0z"/>
  <path class="fil1" d="M961 825c-18,0 -185,-1 -212,-1 -14,0 -26,-12 -26,-27l0 -144c0,-14 12,-26 26,-26 35,0 177,0 212,0 14,0 26,12 26,26l0 146c0,14 -12,26 -26,26z"/>
  <path class="fil2" d="M1094 1223c-14,0 -467,0 -482,0 -14,0 -26,-11 -26,-26l0 -206c0,-128 104,-232 232,-232l70 0c128,0 232,104 232,232l0 206c0,15 -11,26 -26,26z"/>
  <path class="fil3" d="M1189 1590c-15,0 -656,0 -671,0 -14,0 -26,-12 -26,-26l0 -319c0,-41 33,-74 74,-74l574 0c41,0 75,34 75,75l0 318c0,14 -12,26 -26,26z"/>
  <path class="fil4" d="M810 1617l-219 0c-29,0 -52,-24 -52,-53l0 -118c0,-48 15,-94 50,-127 30,-29 70,-45 111,-45 42,0 82,16 111,45 35,33 51,79 51,127l0 118c0,29 -23,53 -52,53z"/>
  <path class="fil5" d="M939 300l-168 0c-25,0 -46,-20 -46,-46l0 -96c0,-25 21,-46 46,-46l9 0 52 -98c5,-9 14,-14 23,-14 10,0 19,5 23,14l53 98 8 0c26,0 46,21 46,46l0 96c0,26 -20,46 -46,46z"/>
  <path class="fil6" d="M960 679l-210 0c-40,0 -73,-32 -73,-72 0,-41 33,-73 73,-73l210 0c40,0 73,32 73,73 0,40 -33,72 -73,72z"/>
  <path class="fil7" d="M951 919l-196 0c-14,0 -26,-12 -26,-26 0,-14 12,-26 26,-26l196 0c15,0 26,12 26,26 0,14 -11,26 -26,26z"/>
  <path class="fil8" d="M989 1017l-271 0c-15,0 -26,-11 -26,-26 0,-14 11,-26 26,-26l271 0c14,0 26,12 26,26 0,15 -12,26 -26,26z"/>
  <path class="fil9" d="M989 1116l-271 0c-15,0 -26,-12 -26,-26 0,-15 11,-26 26,-26l271 0c14,0 26,11 26,26 0,14 -12,26 -26,26z"/>
  <path class="fil10" d="M813 1590l-219 0c-14,-1 -25,-12 -25,-26l0 -118c0,-95 68,-145 135,-145 66,0 134,50 134,145l0 118c0,14 -11,26 -25,26z"/>
  <path class="fil11" d="M1112 1315l-152 0c-15,0 -26,-12 -26,-26 0,-15 11,-26 26,-26l152 0c14,0 26,11 26,26 0,14 -12,26 -26,26z"/>
  <path class="fil12" d="M1112 1407l-152 0c-15,0 -26,-12 -26,-26 0,-15 11,-27 26,-27l152 0c14,0 26,12 26,27 0,14 -12,26 -26,26z"/>
  <path class="fil13" d="M1112 1498l-152 0c-15,0 -26,-11 -26,-26 0,-14 11,-26 26,-26l152 0c14,0 26,12 26,26 0,15 -12,26 -26,26z"/>
  <path class="fil14" d="M1398 1707l-1089 0c-14,0 -26,-12 -26,-26l0 -117c0,-15 12,-26 26,-26l1089 0c14,0 26,11 26,26l0 117c0,14 -12,26 -26,26z"/>
 </g>
</svg>
