<?xml version="1.0" ?><svg viewBox="0 0 512 512" xmlns="http://www.w3.org/2000/svg"><title/><g id="Thai_pagoda"><rect height="4" width="249.8" x="131.1" y="475.23"/><rect height="4" width="259.05" x="126.47" y="484.66"/><path d="M366.58,469.8h9.84v-4H365.58l-1.88-7.5-.07-.22a29.78,29.78,0,0,0-14.71-16.18V426.33h-7l-3.26-6.79V406l12-17.75h-3.77a16.06,16.06,0,0,1-16-16V307.84a74.31,74.31,0,0,0-32.38-61.4,10.9,10.9,0,0,0-2.44-5.61h6.66v-4h-9.44l4.46-5V220.16h-6.26V205.25H285L261.77,48.39h4.73v-4h-4.85V39.53A5.66,5.66,0,0,0,258,34.24V23.34h-4v10.9a5.66,5.66,0,0,0-3.65,5.29v4.86H245.5v4h4.73L227,205.25h-6.51v14.91h-6.26v11l4.24,5.67h-9.22v4h6.66a11,11,0,0,0-2.51,6.29,74.41,74.41,0,0,0-31.38,60.72V372.2a16.06,16.06,0,0,1-16,16h-4.7l12,17.75v13.55l-3.25,6.79h-7V441.9a29.76,29.76,0,0,0-14.72,16.18l-1.94,7.72H135.58v4h231ZM251.3,68.49h9.4l2.39,16.11H248.91ZM263.68,88.6l2.38,16.11H245.94l2.38-16.11Zm3,20.11L269,124.82H243l2.38-16.11Zm3,20.11,2.38,16.1H240l2.38-16.1Zm3,20.1L275,165H237l2.38-16.11Zm3,20.11L278,185.14H234L236.43,169ZM254.35,39.53a1.65,1.65,0,1,1,3.3,0v4.86h-3.3Zm-.08,8.86h3.46l2.38,16.1h-8.22ZM233.45,189.14h45.1l2.38,16.11H231.07Zm-8.93,20.11h63v10.91h-63Zm-6.26,19.25v-4.34h75.48v4.34Zm73.52,4-3.85,4.33H223.5l-3.24-4.33Zm-67.34,8.33h63.12a7.07,7.07,0,0,1,6.76,5H217.68A7.07,7.07,0,0,1,224.44,240.83ZM186.05,372.2V307.84a70.4,70.4,0,0,1,30.44-58h79.94a70.83,70.83,0,0,1,9.82,8.17,69.94,69.94,0,0,1,20.63,49.8V372.2a20,20,0,0,0,8.2,16.14H177.83A20,20,0,0,0,186.05,372.2Zm-17.12,20.14H343.07L335.86,403H176.14ZM335.4,422l2.08,4.33h-163L176.6,422Zm-158.06-4V407H334.66v11Zm-10.25,12.33H344.92v9.94a29.71,29.71,0,0,0-9.09-1.44H176.17a29.6,29.6,0,0,0-9.08,1.44Zm-14.93,29.06a25.81,25.81,0,0,1,24-16.56H335.83a25.81,25.81,0,0,1,24,16.56l1.61,6.41H150.55Z"/></g></svg>