<?xml version="1.0" encoding="iso-8859-1"?>
<!-- Uploaded to: SVG Repo, www.svgrepo.com, Generator: SVG Repo Mixer Tools -->
<svg version="1.1" id="Layer_1" xmlns="http://www.w3.org/2000/svg" xmlns:xlink="http://www.w3.org/1999/xlink" 
	 viewBox="0 0 512 512" xml:space="preserve">
<rect x="176.552" y="185.379" style="fill:#FFCF65;" width="158.897" height="52.966"/>
<rect x="105.931" y="361.931" style="fill:#FF4B4B;" width="300.138" height="97.103"/>
<rect x="132.414" y="291.31" style="fill:#FFCF65;" width="247.172" height="52.966"/>
<g>
	<rect x="132.414" y="291.31" style="fill:#FFB450;" width="247.172" height="26.483"/>
	<rect x="176.552" y="185.379" style="fill:#FFB450;" width="158.897" height="26.483"/>
</g>
<g>
	<path style="fill:#625D6B;" d="M426.219,362.095l-46.633-26.647H132.414l-46.633,26.647c-4.128,2.359-2.454,8.663,2.301,8.663
		h335.838C428.674,370.759,430.348,364.455,426.219,362.095z"/>
	<path style="fill:#625D6B;" d="M256,70.621c-27.633,53.193-82.296,77.193-104.761,85.116c-4.52,1.593-5.778,7.381-2.389,10.77
		l27.702,27.701h158.897l27.702-27.702c3.389-3.389,2.131-9.176-2.389-10.77C338.296,147.814,283.633,123.814,256,70.621z"/>
</g>
<circle style="fill:#FFCF65;" cx="256" cy="61.793" r="17.655"/>
<path style="fill:#504B5A;" d="M335.448,229.517H176.552l-71.226,31.656c-3.962,1.761-4.926,6.95-1.859,10.016l28.948,28.949
	h247.172l28.948-28.948c3.066-3.066,2.103-8.255-1.859-10.016L335.448,229.517z"/>
<path style="fill:#625D6B;" d="M409.857,264.828c-0.533-1.529-1.525-2.918-3.182-3.655l-71.227-31.656H176.552l-71.226,31.657
	c-1.657,0.736-2.649,2.125-3.182,3.655h307.714V264.828z"/>
<path style="fill:#504B5A;" d="M364.153,158.897H147.847c-1.254,2.401-1.155,5.45,1.003,7.609l27.702,27.701h158.897l27.702-27.702
	C365.309,164.348,365.407,161.298,364.153,158.897z"/>
<g>
	<rect x="105.931" y="370.759" style="fill:#FFB450;" width="300.138" height="17.655"/>
	<path style="fill:#FFB450;" d="M282.483,238.345h-52.966c-4.875,0-8.828-3.953-8.828-8.828v-61.793
		c0-4.875,3.953-8.828,8.828-8.828h52.966c4.875,0,8.828,3.953,8.828,8.828v61.793C291.31,234.392,287.359,238.345,282.483,238.345z
		"/>
</g>
<rect x="238.345" y="176.552" style="fill:#5091D7;" width="35.31" height="44.138"/>
<g>
	<path style="fill:#504B5A;" d="M264.828,406.069h-17.655c-4.875,0-8.828,3.953-8.828,8.828v44.138h35.31v-44.138
		C273.655,410.022,269.704,406.069,264.828,406.069z"/>
	<path style="fill:#504B5A;" d="M185.379,406.069h-17.655c-4.875,0-8.828,3.953-8.828,8.828v44.138h35.31v-44.138
		C194.207,410.022,190.254,406.069,185.379,406.069z"/>
	<path style="fill:#504B5A;" d="M344.276,406.069h-17.655c-4.875,0-8.828,3.953-8.828,8.828v44.138h35.31v-44.138
		C353.103,410.022,349.152,406.069,344.276,406.069z"/>
</g>
<g>
	<path style="fill:#EDEDEE;" d="M220.69,459.034H17.655v-26.483c0-4.875,3.953-8.828,8.828-8.828h185.379
		c4.875,0,8.828,3.953,8.828,8.828V459.034z"/>
	<path style="fill:#EDEDEE;" d="M494.345,459.034H291.31v-26.483c0-4.875,3.953-8.828,8.828-8.828h185.379
		c4.875,0,8.828,3.953,8.828,8.828V459.034z"/>
</g>
<path style="fill:#DCDBDE;" d="M503.172,467.862H8.828c-4.875,0-8.828-3.953-8.828-8.828l0,0c0-4.875,3.953-8.828,8.828-8.828
	h494.345c4.875,0,8.828,3.953,8.828,8.828l0,0C512,463.911,508.049,467.862,503.172,467.862z"/>
</svg>