<?xml version="1.0" ?>
<!-- Uploaded to: SVG Repo, www.svgrepo.com, Generator: SVG Repo Mixer Tools -->
<svg width="800px" height="800px" viewBox="0 0 24 24" xmlns="http://www.w3.org/2000/svg">
<defs>
<style>.cls-1{fill:#ffeabb;}.cls-2{fill:#f7bf75;}.cls-3{fill:#96ccee;}.cls-4{fill:#f94060;}.cls-5,.cls-6{fill:#f1734d;}.cls-6{fill-rule:evenodd;}</style>
</defs>
<g id="Inflation">
<path class="cls-1" d="M21.43,8.79H2.57a.56.56,0,0,0-.4.17A.58.58,0,0,0,2,9.37V20.22a.57.57,0,0,0,.57.57H21.43a.57.57,0,0,0,.57-.57V9.37A.58.58,0,0,0,21.43,8.79Z"/>
<path class="cls-2" d="M22,17.29a3.5,3.5,0,0,0-3.5,3.5h2.93a.57.57,0,0,0,.57-.57Z"/>
<path class="cls-2" d="M2,17.29v2.93a.57.57,0,0,0,.57.57H5.5A3.5,3.5,0,0,0,2,17.29"/>
<path class="cls-2" d="M18.5,8.79a3.5,3.5,0,0,0,3.5,3.5V9.37a.58.58,0,0,0-.57-.58Z"/>
<path class="cls-2" d="M2.57,8.79A.58.58,0,0,0,2,9.37v2.92a3.5,3.5,0,0,0,3.5-3.5Z"/>
<path class="cls-3" d="M8.7,3.21a1,1,0,0,0-.76.33L6.34,5.35a1,1,0,0,0,.08,1.41,1,1,0,0,0,1.26,0V9.49a1,1,0,1,0,2,0V6.81a1,1,0,0,0,1.27,0A1,1,0,0,0,11,5.35L9.43,3.54a1,1,0,0,0-.73-.33"/>
<path class="cls-4" d="M15.31,11.38a1,1,0,0,0,.75-.34l1.6-1.8a1,1,0,0,0-.08-1.41,1,1,0,0,0-1.26,0V5.1a1,1,0,0,0-2,0V7.77A1,1,0,0,0,13,9.24l1.6,1.8a1,1,0,0,0,.74.34"/>
<path class="cls-2" d="M22,9.37a.58.58,0,0,0-.57-.58H20v12h1.39a.57.57,0,0,0,.57-.57Z"/>
<path class="cls-5" d="M20,8.79v2.9a3.47,3.47,0,0,0,2,.6V9.37a.58.58,0,0,0-.57-.58Zm2,8.5a3.47,3.47,0,0,0-2,.61v2.89h1.39a.57.57,0,0,0,.57-.57Z"/>
<path class="cls-6" d="M10.44,19.49h3.12a.5.5,0,0,0,.5-.5.5.5,0,0,0-.5-.5H10.44a.5.5,0,0,0-.5.5A.5.5,0,0,0,10.44,19.49Z"/>
<path class="cls-6" d="M11.5,12.52v-.23a.5.5,0,0,1,1,0v.23a1.45,1.45,0,0,1,.51.33,1.39,1.39,0,0,1,.31.45.5.5,0,0,1-.27.66.49.49,0,0,1-.65-.27.38.38,0,0,0-.09-.13.41.41,0,0,0-.29-.13h0a.43.43,0,0,0,0,.86,1.44,1.44,0,0,1,.5,2.78v.22a.5.5,0,0,1-1,0v-.22a1.45,1.45,0,0,1-.51-.33,1.33,1.33,0,0,1-.31-.46.5.5,0,1,1,.92-.38.31.31,0,0,0,.1.13.4.4,0,0,0,.3.13.44.44,0,0,0,0-.87,1.43,1.43,0,0,1-.5-2.77Z"/>
</g>
</svg>