<?xml version="1.0" encoding="iso-8859-1"?>
<!-- Uploaded to: SVG Repo, www.svgrepo.com, Generator: SVG Repo Mixer Tools -->
<svg fill="#000000" height="800px" width="800px" version="1.1" id="Layer_1" xmlns="http://www.w3.org/2000/svg" xmlns:xlink="http://www.w3.org/1999/xlink" 
	 viewBox="0 0 512 512" xml:space="preserve">
<g>
	<g>
		<g>
			<path d="M501.333,0H10.667C4.776,0,0,4.776,0,10.667v490.667C0,507.224,4.776,512,10.667,512h490.667
				c5.891,0,10.667-4.776,10.667-10.667V10.667C512,4.776,507.224,0,501.333,0z M490.667,490.667H21.333V21.333h469.333V490.667z"/>
			<path d="M96,426.667h106.667c5.891,0,10.667-4.776,10.667-10.667V309.333h96V416c0,5.891,4.776,10.667,10.667,10.667h96
				c5.891,0,10.667-4.776,10.667-10.667V96c0-5.891-4.776-10.667-10.667-10.667h-96c-5.891,0-10.667,4.776-10.667,10.667v106.667
				h-96V96c0-5.891-4.776-10.667-10.667-10.667H96c-5.891,0-10.667,4.776-10.667,10.667v320
				C85.333,421.891,90.109,426.667,96,426.667z M106.667,106.667H192v106.667c0,5.891,4.776,10.667,10.667,10.667H320
				c5.891,0,10.667-4.776,10.667-10.667V106.667h74.667v298.667h-74.667V298.667c0-5.891-4.776-10.667-10.667-10.667H202.667
				c-5.891,0-10.667,4.776-10.667,10.667v106.667h-85.333V106.667z"/>
		</g>
	</g>
</g>
</svg>