<svg xmlns="http://www.w3.org/2000/svg" shape-rendering="geometricPrecision" text-rendering="geometricPrecision" image-rendering="optimizeQuality" fill-rule="evenodd" clip-rule="evenodd" viewBox="0 0 512 466.35"><path fill="#008100" d="m262.05 0 13.59 66.6 5.1-14.32 5.15 32.15 9.73-5.91-2.87 32.94 15.52-5.03-9.13 31.51 14.82-7.23-8.73 31.48 10.75-7.24-10.35 34.89 15.31-4.89-15.28 28.01 13.12-1.04-12.71 19.13 10.79 1.28-14 26.72 10.49-2.32-11.53 27.46.92 1.31 5.08-.14 10.65-17.96 3.58 8.01 10.73-22.21 6.1 6.47 6.36-17.66 5.71 9.12 10.94-23.67 4.26 12.43 17.86-23.78.48 10.59 16.42-21.06 2.47 13.25 16.24-21.34 4.25 12.63 20.23-17.91.86 9.26 23.61-12.27-6.92 10.32L512 176.07l-37.11 41.36 11.88-3.63-18.59 19.04 8.61 3.5-23.01 14.16 10.85 7.74-25.13 9.35 11.96 6.2-24.92 9.61 9.99 3.53-27.94 10.19 10.66 7.67-25.83 3.61 7.07 8.11-18.75.96 4.42 7.71L361.8 329l6.63 5.75-23.18 5.7.32 2.88 1.11 1.41 9.97-5.85-.71 6.73 15.88-7.62-2.88 7.82 19.69-5.03-4.17 5.46 17.77-4.22-4.2 7.54 17.79-4.42-2.96 7.91 18.53-1.2-3.41 4.95 18.01 2.9-8.09 2.49 37.3 7.52-37.54 6.44 8 2.73-18.1 2.37 3.23 5.04-18.48-1.73 2.69 8-17.63-4.94 3.93 7.65-17.61-4.73 3.98 5.58-19.51-5.6 2.61 7.9-15.6-8.07.46 6.74-10.63-6.68-.81 5.53-14.9-7.4 1.22 5.39-16.08-6.43.06 4.85-19.49-8.61-.88 4.1-14.52-10.83-.49 4.02-9-7.23c-.65 12.79-.21 25.58.9 38.34 1.44 16.4 4 32.69 6.82 48.93l.93 5.27h-33.98l.96-5.31c3.03-16.7 5.55-33.3 7.03-49.64 1.18-13.12 1.68-26.13 1.2-38.97l-9.69 7.79-.49-4.02-14.52 10.83-.88-4.09-19.49 8.6.06-4.85-16.08 6.43 1.21-5.39-14.89 7.4-.82-5.53-10.62 6.68.46-6.74-15.59 8.07 2.6-7.9-19.51 5.6 3.98-5.58-17.61 4.74 3.93-7.66-17.63 4.94 2.69-8-18.48 1.73 3.24-5.04-18.11-2.37 7.99-2.73-37.54-6.44 37.3-7.51-8.09-2.5 18.02-2.9-3.41-4.95 18.53 1.2-2.96-7.91 17.79 4.43-4.2-7.55 17.76 4.22-4.16-5.46 19.69 5.03-2.79-7.59-6.34-1.48 6.57-5.82-24.41-3.55 4.34-7.76-18.76-.75 6.98-8.19-25.87-3.31 10.58-7.8-28.06-9.88 9.96-3.64-25.03-9.33 11.9-6.34-25.24-9.07 10.76-7.85-23.16-13.91 8.57-3.6-18.81-18.83 11.92 3.5L0 178.86l50.6 22.94-7.03-10.24 23.75 12.01.75-9.27 20.43 17.69 4.11-12.68 16.48 21.15 2.32-13.27 16.66 20.87.35-10.59 18.13 23.58 4.11-12.48 11.21 23.55 5.61-9.18 6.56 17.59 6.02-6.53 10.98 22.08 3.49-8.05 13.27 21.83 4.37-6.38 2.29 4.11-1.07-2.3 9.46.25-12.1-28.81 10.48 2.32-14-26.72 10.8-1.28-12.72-19.13 13.12 1.04-15.28-28.01 15.31 4.89-10.35-34.89 10.75 7.24-8.72-31.48 14.82 7.23-9.13-31.51 15.51 5.03-2.86-32.94 9.73 5.91 5.15-32.15 5.09 14.32L262.05 0zm-95 341.01-14.62-3.41 15.01 7.2-.39-3.79z"/></svg>