<?xml version="1.0" encoding="iso-8859-1"?>
<!-- Uploaded to: SVG Repo, www.svgrepo.com, Generator: SVG Repo Mixer Tools -->
<svg height="800px" width="800px" version="1.1" id="Layer_1" xmlns="http://www.w3.org/2000/svg" xmlns:xlink="http://www.w3.org/1999/xlink" 
	 viewBox="0 0 503.467 503.467" xml:space="preserve">
<g transform="translate(1 1)">
	<path style="fill:#ECF4F7;" d="M317.293,363.541c29.867-29.867,29.867-90.453,29.867-90.453s-60.587,0-90.453,29.867
		c-2.56,2.56-4.267,4.267-5.973,6.827c-1.707-2.56-3.413-5.12-5.973-6.827c-29.867-29.867-90.453-29.867-90.453-29.867
		s0,60.587,29.867,90.453s66.56,5.973,66.56,5.973S286.573,393.407,317.293,363.541 M498.2,241.514v17.067
		c0,120.32-76.8,187.733-76.8,187.733H80.067c0,0-76.8-68.267-76.8-187.733v-17.067c0-18.773,15.36-34.133,34.133-34.133h71.68
		h72.533h282.453C482.84,207.381,498.2,222.741,498.2,241.514z M429.933,454.847v34.133c0,4.267-3.413,8.533-8.533,8.533H80.067
		c-4.267,0-8.533-4.267-8.533-8.533v-34.133c0-4.267,4.267-8.533,8.533-8.533H421.4C426.52,446.314,429.933,450.581,429.933,454.847
		z"/>
	<path style="fill:#50DD8E;" d="M258.413,327.701C258.413,327.701,258.413,328.554,258.413,327.701c0,1.707,0.853,2.56,0.853,3.413
		c0,0.853,0,2.56,0,3.413c0.853,7.68-0.853,15.36-2.56,21.333c0,0.853-0.853,1.707-0.853,2.56c-0.853,1.707-1.707,4.267-2.56,5.12
		c-1.707,3.413-2.56,5.12-2.56,5.12s35.84,23.893,66.56-5.973c29.867-29.867,29.867-90.453,29.867-90.453s-60.587,0-90.453,29.867
		c-2.56,2.56-4.267,4.267-5.973,6.827c2.56,3.413,4.267,6.827,5.973,11.093l0,0l0,0c-1.707-3.413-3.413-6.827-5.973-10.24l0,0
		c-1.707-2.56-3.413-5.12-5.973-6.827c-29.867-29.867-90.453-29.867-90.453-29.867s0,60.587,29.867,90.453
		c29.867,29.867,66.56,5.973,66.56,5.973s0.853-1.707,2.56-5.12c0.853-1.707,1.707-3.413,2.56-5.12
		c0.853-0.853,0.853-1.707,0.853-2.56c1.707-5.973,3.413-12.8,2.56-21.333c0-0.853,0-2.56,0-3.413
		C259.267,330.261,259.267,329.407,258.413,327.701C258.413,328.554,258.413,327.701,258.413,327.701L258.413,327.701z
		 M256.707,320.874L256.707,320.874L256.707,320.874z"/>
	<path style="fill:#AAB1BA;" d="M181.613,206.527v0.853H109.08v-0.853L88.6,17.941c-0.853-4.267,2.56-9.387,6.827-10.24l33.28-5.973
		c4.267-0.853,9.387,2.56,9.387,6.827L181.613,206.527z"/>
</g>
<path style="fill:#51565F;" d="M422.4,502.781H81.067c-6.827,0-12.8-5.973-12.8-12.8v-34.133c0-4.267,1.707-7.68,5.12-10.24
	C56.32,427.687,0,361.981,0,259.581v-17.067c0-21.333,17.067-38.4,38.4-38.4h426.667c21.333,0,38.4,17.067,38.4,38.4v17.067
	c0,103.253-56.32,168.107-73.387,186.027c3.413,2.56,5.12,5.973,5.12,10.24v34.133C435.2,496.807,429.227,502.781,422.4,502.781z
	 M81.067,451.581c-2.56,0-4.267,1.707-4.267,4.267v34.133c0,2.56,1.707,4.267,4.267,4.267H422.4c2.56,0,4.267-1.707,4.267-4.267
	v-34.133c0-2.56-1.707-4.267-4.267-4.267c-1.707,0-3.413-0.853-4.267-2.56c-0.853-1.707,0-3.413,0.853-5.12
	c0.853-0.853,75.093-67.413,75.093-184.32v-17.067c0-16.213-13.653-29.867-29.867-29.867H37.547
	c-16.213,0-29.867,13.653-29.867,29.867v17.067c0,108.373,64.853,174.08,74.24,183.467h305.493c2.56,0,4.267,1.707,4.267,4.267
	c0,2.56-1.707,4.267-4.267,4.267H81.067z M220.16,384.167c-11.947,0-25.6-4.267-37.547-16.213l0,0l0,0
	c-30.72-30.72-31.573-91.307-31.573-93.867s1.707-4.267,4.267-4.267c2.56,0,62.293,0,93.867,31.573s8.533,69.12,6.827,71.68
	c0,0,0,0.853-0.853,0.853l-0.853,0.853C252.587,375.634,238.08,384.167,220.16,384.167z M159.573,278.354
	c0.853,14.507,5.12,58.88,29.013,82.773l0,0c21.333,21.333,46.08,12.8,56.32,7.68l-56.32-56.32
	c-0.853-0.853-0.853-1.707-0.853-3.413s0-2.56,0.853-3.413c1.707-1.707,4.267-1.707,5.973,0l56.32,56.32
	c5.12-10.24,13.653-34.987-7.68-56.32C218.453,283.474,174.08,279.207,159.573,278.354z M285.867,384.167
	c-2.56,0-4.267-1.707-4.267-4.267c0-2.56,1.707-4.267,4.267-4.267c11.093-0.853,21.333-5.12,29.867-13.653
	c23.893-23.893,28.16-69.12,29.013-82.773c-11.093,0.853-40.107,3.413-64,15.36c-1.707,0.853-4.267,0-5.973-1.707
	c-0.853-1.707,0-4.267,1.707-5.973c31.573-16.213,69.973-16.213,71.68-16.213l0,0c0.853,0,2.56,0.853,3.413,0.853
	c0.853,0,0.853,1.707,0.853,3.413c0,2.56,0,62.293-31.573,93.867C310.613,377.341,299.52,383.314,285.867,384.167L285.867,384.167z
	 M287.573,339.794c-0.853,0-2.56,0-3.413-0.853c-0.853-0.853-0.853-1.707-0.853-3.413s0-2.56,0.853-3.413l24.747-24.747
	c1.707-1.707,4.267-1.707,5.973,0c0.853,0.853,0.853,1.707,0.853,3.413s0,2.56-0.853,3.413l-24.747,24.747
	C289.28,338.941,288.427,339.794,287.573,339.794z M175.787,178.514c-1.707,0-3.413-1.707-4.267-3.413l-35.84-163.84
	c0-1.707-0.853-2.56-1.707-2.56c-0.853-0.853-1.707-0.853-3.413-0.853l-33.28,5.973c-0.853,0-1.707,0.853-2.56,1.707
	c-0.853,0.853-0.853,1.707-0.853,3.413l17.067,155.307c0,2.56-1.707,4.267-3.413,5.12c-2.56,0-4.267-1.707-5.12-3.413L85.333,21.501
	c-0.853-3.413,0-6.827,2.56-9.387c1.707-2.56,5.12-4.267,8.533-5.12l33.28-5.973c3.413-0.853,6.827,0,9.387,1.707
	c2.56,1.707,4.267,5.12,5.12,8.533l34.987,163.84c0.853,2.56-0.853,4.267-3.413,5.12
	C175.787,178.514,175.787,178.514,175.787,178.514z"/>
</svg>