<?xml version="1.0" encoding="iso-8859-1"?>
<!-- Uploaded to: SVG Repo, www.svgrepo.com, Generator: SVG Repo Mixer Tools -->
<svg version="1.1" id="Layer_1" xmlns="http://www.w3.org/2000/svg" xmlns:xlink="http://www.w3.org/1999/xlink" 
	 viewBox="0 0 496.2 496.2" xml:space="preserve">
<path style="fill:#E04F5F;" d="M496.2,248.1C496.2,111.1,385.1,0,248.1,0S0,111.1,0,248.1s111.1,248.1,248.1,248.1
	S496.2,385.1,496.2,248.1z"/>
<path style="fill:#BCBCBC;" d="M361.5,212.8c0,1.9,1.5,3.4,3.4,3.4h11.6c1.9,0,3.4-1.5,3.4-3.4v-29.7c0-1.9-1.5-3.4-3.4-3.4h-11.6
	c-1.9,0-3.4,1.5-3.4,3.4V212.8z"/>
<path style="fill:#B4CC5E;" d="M389.6,354.3c0,6.1-4.9,11-11,11h-261c-6.1,0-11-4.9-11-11V200.5c0-6.1,4.9-11,11-11
	c0,0,41.3-5.7,130.3-5.7s130.7,5.7,130.7,5.7c6.1,0,11,4.9,11,11V354.3z"/>
<path style="fill:#7DAD33;" d="M389.6,354.3c0,6.1-4.9,11-11,11h-261c-6.1,0-11-4.9-11-11v-4.9h283V354.3z"/>
<path style="fill:#CC9D3E;" d="M364.5,312.3c0,5-4.1,9-9,9H140.7c-5,0-9-4-9-9v-98.2c0-5,4-9,9-9h214.8c5,0,9,4,9,9L364.5,312.3
	L364.5,312.3z"/>
<path style="fill:#B78637;" d="M131.7,214.1c0-5,4-9,9-9h214.8c5,0,9,4,9,9l-232.9,62.4L131.7,214.1z"/>
<path style="fill:#D3B05B;" d="M215.1,209.7l-13.8,13.8l-13.8-13.8l4.6-4.6h-4.6l-2.3,2.3l-2.3-2.3h-4.6l4.6,4.6l-13.8,13.7
	l-13.8-13.8l4.6-4.6h-4.6l-2.3,2.3l-2.3-2.3h-4.6l4.6,4.6l-13.8,13.8l-5.3-5.3v4.6l3,3l-3,3v4.6l5.3-5.3l13.8,13.8l-13.8,13.8
	l-5.3-5.3v4.6l3,3l-3,3v4.6l5.3-5.3l13.8,13.8l-13.8,13.8l-5.3-5.3v4.6l3,3l-3,3v4.6l5.3-5.3l13.8,13.8L136.9,320l-4.9-4.9
	c1.1,3.5,4.3,6.1,8.2,6.3l12.8-12.8l12.9,12.9h6.4l12.9-12.9l12.9,12.9h6.4l12.8-12.8l12.8,12.8h6.5l12.8-12.8l12.8,12.8h6.4
	l12.9-12.9l12.9,12.9h6.4l12.9-12.9l12.9,12.9h6.4l12.9-12.9l12.4,12.4c1.1-0.4,2.1-0.9,3-1.7l-13-13l13.8-13.8l2.4,2.4v-4.6
	l-0.1-0.1l0.1-0.1v-4.6l-2.4,2.4l-13.8-13.8l13.8-13.8l2.4,2.4v-4.6l-0.1-0.1l0.1-0.1v-4.6l-2.4,2.4l-13.8-13.8l13.8-13.8l2.4,2.4
	v-4.6l-0.1-0.1l0.1-0.1v-4.6l-2.4,2.4l-13.8-13.8l4.6-4.6h-4.6l-2.3,2.3l-2.3-2.3h-4.6l4.6,4.6l-13.8,13.8l-13.8-13.8l4.6-4.6h-4.6
	l-2.3,2.3l-2.3-2.3h-4.6l4.6,4.6l-13.8,13.8l-13.8-13.8l4.6-4.6h-4.6l-2.3,2.3l-2.3-2.3h-4.6l4.6,4.6l-13.8,13.8l-13.8-13.8l4.6-4.6
	h-4.6l-2.3,2.3l-2.3-2.3h-4.6l4.6,4.6l-13.7,13.7l-13.7-13.7l4.6-4.6h-4.6l-2.3,2.3l-2.3-2.3h-4.6L215.1,209.7z M208.9,235.6
	L208.9,235.6l6.2,6.2l-13.7,13.7l-13.7-13.7l13.8-13.8L208.9,235.6z M274.1,251.7l7.6-7.6l13.8,13.8l-13.7,13.7l-13.7-13.7
	L274.1,251.7L274.1,251.7z M313.9,271.7l-13.8-13.8l13.8-13.8l13.8,13.8L313.9,271.7z M329.9,260.2l13.8,13.8l-13.8,13.8L316.1,274
	L329.9,260.2z M311.5,274l-13.8,13.8l-7.6-7.6l0,0l-6.2-6.2l6.2-6.2l0,0l7.6-7.6L311.5,274z M279.4,274l-13.7,13.7L252,274
	l13.7-13.7L279.4,274z M249.5,271.7L235.8,258l13.7-13.7l13.7,13.7L249.5,271.7z M247.2,274l-13.7,13.7L219.8,274l13.7-13.7
	L247.2,274z M217.4,271.7L203.7,258l13.7-13.7l13.7,13.7L217.4,271.7z M176.7,280.2l-7.6,7.6L155.3,274l13.8-13.8l7.6,7.6l0,0
	l6.2,6.2L176.7,280.2L176.7,280.2z M171.5,257.9l13.8-13.8l7.6,7.6l0,0l6.2,6.2l-13.7,13.7L171.5,257.9z M201.3,260.3L215,274
	l-13.7,13.7L187.6,274L201.3,260.3z M185.2,212l13.8,13.8l-13.8,13.8l-13.8-13.8L185.2,212z M182.9,241.8l-13.8,13.8l-13.8-13.8
	l13.8-13.7L182.9,241.8z M139.3,225.8l13.8-13.8l13.8,13.8l-13.8,13.7L139.3,225.8z M139.3,257.9l13.8-13.8l13.8,13.8l-13.8,13.8
	L139.3,257.9z M139.3,290.1l13.8-13.8l13.8,13.8l-13.8,13.7L139.3,290.1z M169.1,319.9l-13.8-13.8l13.8-13.8l13.8,13.8L169.1,319.9z
	 M171.5,290.1l13.7-13.7l13.7,13.7l-6.2,6.2l0,0l-7.6,7.6L171.5,290.1z M208.9,312.4l-7.6,7.6l-13.8-13.8l13.7-13.7l13.7,13.7
	L208.9,312.4L208.9,312.4z M203.6,290.1l13.7-13.7l13.8,13.7l-13.7,13.7L203.6,290.1z M233.5,319.9l-13.7-13.7l13.7-13.7l13.7,13.7
	L233.5,319.9z M235.8,290.1l13.7-13.7l13.7,13.7l-13.7,13.7L235.8,290.1z M265.6,319.9l-7.6-7.6l0,0l-6.2-6.2l13.7-13.7l13.7,13.7
	L265.6,319.9z M274.1,296.3L274.1,296.3l-6.2-6.2l13.7-13.7l13.7,13.7l-13.8,13.8L274.1,296.3z M297.8,319.9L284,306.1l13.8-13.8
	l13.8,13.8L297.8,319.9z M300.1,290.1l13.8-13.8l13.8,13.8l-13.8,13.8L300.1,290.1z M329.9,319.9l-13.8-13.8l13.8-13.8l13.8,13.8
	L329.9,319.9z M359.8,290.1L346,303.9l-13.8-13.8l13.8-13.8L359.8,290.1z M359.8,257.9L346,271.7l-13.8-13.8l13.8-13.8L359.8,257.9z
	 M346,212l13.8,13.8L346,239.6l-13.8-13.8L346,212z M343.7,241.8l-13.8,13.8l-13.8-13.8l13.8-13.8L343.7,241.8z M313.9,212
	l13.8,13.8l-13.8,13.8l-13.8-13.8L313.9,212z M311.5,241.8l-13.8,13.8l-13.8-13.8l13.8-13.8L311.5,241.8z M281.7,212l13.8,13.8
	l-13.8,13.8l-13.8-13.8L281.7,212z M279.4,241.8l-13.7,13.7L252,241.8l6.2-6.2l0,0l7.6-7.6L279.4,241.8z M242,219.5l7.6-7.6
	l13.8,13.8l-13.7,13.7L236,225.7L242,219.5L242,219.5z M247.2,241.8l-13.7,13.7l-13.7-13.7l13.7-13.7L247.2,241.8z M225,219.5
	L225,219.5l6.2,6.2l-13.7,13.7l-13.7-13.7l13.8-13.8L225,219.5z"/>
<rect x="131.6" y="264.5" style="fill:#9EB24B;" width="232.9" height="12"/>
<g>
	<rect x="131.3" y="264.5" style="fill:#B4CC5E;" width="233.4" height="2.2"/>
	<rect x="131.3" y="274.3" style="fill:#B4CC5E;" width="233.4" height="2.3"/>
</g>
<circle style="fill:#C9DB7D;" cx="199.2" cy="271.1" r="61.3"/>
<path style="fill:#666665;" d="M145.3,271.1c0-29.8,24.1-53.9,53.9-53.9s53.9,24.1,53.9,53.9S229,325,199.2,325
	S145.3,300.9,145.3,271.1z"/>
<circle style="fill:#E2AD00;" cx="199.2" cy="271.1" r="50.8"/>
<circle style="fill:#A57C20;" cx="199.2" cy="271.1" r="28.3"/>
<circle style="fill:#6D5119;" cx="199.2" cy="271.1" r="15.5"/>
<path style="fill:#A57C20;" d="M249.6,264.5H148.8c-0.3,2.1-0.4,4.3-0.4,6.5c0,1.8,0.1,3.6,0.3,5.4h101.1c0.2-1.8,0.3-3.6,0.3-5.4
	C250,268.9,249.9,266.7,249.6,264.5z"/>
<g>
	<circle style="fill:#FADA80;" cx="248.3" cy="338.1" r="14.4"/>
	<circle style="fill:#FADA80;" cx="248.3" cy="326.6" r="4.2"/>
	<circle style="fill:#FADA80;" cx="248.3" cy="349.7" r="4.2"/>
	<path style="fill:#FADA80;" d="M259.9,342.4c-2.3,0-4.2-1.9-4.2-4.2s1.9-4.2,4.2-4.2c2.3,0,4.2,1.9,4.2,4.2
		S262.2,342.4,259.9,342.4z"/>
	<circle style="fill:#FADA80;" cx="236.8" cy="338.1" r="4.2"/>
	<path style="fill:#FADA80;" d="M259.5,333c-1.7,1.7-4.3,1.7-6,0s-1.7-4.3,0-6s4.3-1.7,6,0C261.1,328.6,261.1,331.3,259.5,333z"/>
	<path style="fill:#FADA80;" d="M243.1,349.3c-1.7,1.7-4.3,1.7-6,0s-1.7-4.3,0-6s4.3-1.7,6,0C244.8,345,244.8,347.7,243.1,349.3z"/>
	<path style="fill:#FADA80;" d="M253.5,349.3c-1.7-1.7-1.7-4.3,0-6s4.3-1.7,6,0s1.7,4.3,0,6C257.8,351,255.1,351,253.5,349.3z"/>
	<path style="fill:#FADA80;" d="M237.2,333c-1.7-1.7-1.7-4.3,0-6s4.3-1.7,6,0s1.7,4.3,0,6C241.5,334.6,238.8,334.6,237.2,333z"/>
	<circle style="fill:#FADA80;" cx="252.8" cy="327.5" r="4.2"/>
	<circle style="fill:#FADA80;" cx="243.9" cy="348.8" r="4.2"/>
	<path style="fill:#FADA80;" d="M257.4,346.5c-2.2-0.9-3.2-3.4-2.3-5.5c0.9-2.2,3.4-3.2,5.5-2.3c2.2,0.9,3.2,3.4,2.3,5.5
		C262,346.4,259.5,347.4,257.4,346.5z"/>
	<path style="fill:#FADA80;" d="M236,337.6c-2.2-0.9-3.2-3.4-2.3-5.5c0.9-2.2,3.4-3.2,5.5-2.3c2.2,0.9,3.2,3.4,2.3,5.5
		C240.7,337.5,238.2,338.5,236,337.6z"/>
	<circle style="fill:#FADA80;" cx="259" cy="333.7" r="4.2"/>
	<circle style="fill:#FADA80;" cx="237.6" cy="342.5" r="4.2"/>
	<path style="fill:#FADA80;" d="M248.8,350.4c-0.9-2.2,0.1-4.6,2.3-5.5c2.2-0.9,4.6,0.1,5.5,2.3c0.9,2.2-0.1,4.6-2.3,5.5
		C252.2,353.6,249.7,352.6,248.8,350.4z"/>
	<circle style="fill:#FADA80;" cx="243.9" cy="327.4" r="4.2"/>
</g>
<circle cx="248.3" cy="338.1" r="12.7"/>
<circle style="fill:#FADA80;" cx="248.3" cy="338.1" r="11.4"/>
<g>
	<circle style="fill:#515151;" cx="141.5" cy="336.2" r="9.3"/>
	<circle style="fill:#515151;" cx="141.5" cy="336.2" r="9.3"/>
</g>
<circle style="fill:#333333;" cx="141.5" cy="336.2" r="4.2"/>
<path style="fill:#E8E8E8;" d="M370.5,185.7c-0.4,0.1-0.8,0.1-1.2,0l-252.4-78.2c-1.2-0.4-1.9-1.7-1.5-2.9c0.4-1.2,1.7-1.9,2.9-1.5
	l252.4,78.2c1.2,0.4,1.9,1.7,1.5,2.9C372,185,371.3,185.5,370.5,185.7z"/>
<path style="fill:#D6D6D6;" d="M371.3,186.9c-0.5,0.1-1.1,0.1-1.6-0.1l-180.1-55.6c-1.7-0.5-2.6-2.3-2.1-4c0.5-1.7,2.3-2.6,4-2.1
	l180.1,55.6c1.7,0.5,2.6,2.3,2.1,4C373.3,185.8,372.4,186.6,371.3,186.9z"/>
<path style="fill:#C6C6C6;" d="M372,187.8c-0.7,0.1-1.4,0.1-2.1-0.1l-69.2-21.5c-2.2-0.7-3.4-3-2.7-5.2c0.7-2.2,3-3.4,5.2-2.7
	l69.2,21.5c2.2,0.7,3.4,3,2.7,5.2C374.6,186.4,373.4,187.4,372,187.8z"/>
<path style="fill:#E8E8E8;" d="M110.5,106.8c-0.9-3.9,1.6-7.9,5.6-8.7c4-0.9,7.9,1.6,8.7,5.6c0.9,3.9-1.6,7.9-5.6,8.7
	S111.4,110.8,110.5,106.8z"/>
</svg>