<?xml version="1.0" encoding="iso-8859-1"?>
<!-- Uploaded to: SVG Repo, www.svgrepo.com, Generator: SVG Repo Mixer Tools -->
<svg version="1.1" id="Layer_1" xmlns="http://www.w3.org/2000/svg" xmlns:xlink="http://www.w3.org/1999/xlink" 
	 viewBox="0 0 512 512" xml:space="preserve">
<path style="fill:#B3D8F4;" d="M488.729,124.146l-69.82-0.003V23.298c0-12.853-10.418-23.271-23.271-23.273L256.003,0.012L116.365,0
	c0,0,0,0-0.002,0c-6.172,0-12.091,2.451-16.455,6.816c-4.366,4.364-6.817,10.283-6.817,16.457v100.852l-69.817-0.003
	c-0.002,0-0.002,0-0.002,0c-6.172,0-12.091,2.453-16.455,6.816C2.451,135.301,0,141.22,0,147.394v341.333
	C0,501.58,10.42,512,23.273,512h139.636H256h93.091h139.636C501.58,512,512,501.58,512,488.727V147.419
	C512,134.566,501.582,124.148,488.729,124.146z"/>
<path style="fill:#2488FF;" d="M349.091,341.333H256h-93.091c-12.853,0-23.273,10.42-23.273,23.273v100.848v23.273
	c0,12.853,10.42,23.273,23.273,23.273H256h93.091c12.853,0,23.273-10.42,23.273-23.273v-23.273V364.606
	C372.364,351.753,361.944,341.333,349.091,341.333z"/>
<path style="fill:#D6E5F6;" d="M395.638,0.025L256.003,0.012L116.365,0c0,0,0,0-0.002,0c-6.172,0-12.091,2.451-16.455,6.816
	c-4.366,4.364-6.817,10.283-6.817,16.457v100.852v23.273v23.273V256c0,12.853,10.42,23.273,23.273,23.273h139.639h139.633
	c12.853,0,23.273-10.42,23.273-23.273v-85.312v-23.273v-23.273V23.298C418.909,10.445,408.491,0.026,395.638,0.025z"/>
<g>
	<rect x="186.182" y="387.879" style="fill:#005ECE;" width="46.545" height="77.576"/>
	<rect x="279.273" y="387.879" style="fill:#005ECE;" width="46.545" height="77.576"/>
</g>
<polygon style="fill:#B8002B;" points="235.636,193.939 276.364,193.939 276.364,160.02 310.303,160.02 310.303,147.409 
	310.303,119.293 276.364,119.293 276.364,85.333 235.636,85.333 235.636,119.293 201.697,119.293 201.697,147.403 201.697,160.02 
	235.636,160.02 "/>
<path style="fill:#8CB7E8;" d="M116.364,279.273c-12.853,0-23.273-10.42-23.273-23.273v-85.329v-23.273v-23.273l-69.817-0.005
	c-0.002,0-0.002,0-0.002,0c-6.172,0-12.091,2.453-16.455,6.816C2.451,135.301,0,141.22,0,147.394v341.333
	C0,501.58,10.42,512,23.273,512h139.636c-12.853,0-23.273-10.42-23.273-23.273v-23.273V364.606c0-12.853,10.42-23.273,23.273-23.273
	H256h0.003v-62.061H116.364z"/>
<path style="fill:#C9DDF4;" d="M93.091,170.671V256c0,12.853,10.42,23.273,23.273,23.273h139.639v-85.333h-20.367V160.02h-33.939
	v-12.615v-28.112h33.939v-33.96h20.367V0.012L116.365,0c0,0,0,0-0.002,0c-6.172,0-12.091,2.451-16.455,6.816
	c-4.366,4.364-6.817,10.283-6.817,16.457v100.852v23.273V170.671z"/>
</svg>