<?xml version="1.0" encoding="iso-8859-1"?>
<!-- Uploaded to: SVG Repo, www.svgrepo.com, Generator: SVG Repo Mixer Tools -->
<svg version="1.1" id="Layer_1" xmlns="http://www.w3.org/2000/svg" xmlns:xlink="http://www.w3.org/1999/xlink" 
	 viewBox="0 0 512 512" xml:space="preserve">
<path style="fill:#003DA8;" d="M313.388,459.946L239.15,359.647l-100.124-20.898l20.898,173.245h127.233
	C313.954,511.994,329.33,481.484,313.388,459.946z"/>
<g>
	<path style="fill:#2F91ED;" d="M80.699,359.647L6.462,459.946c-15.941,21.538-0.566,52.048,26.231,52.048h127.233V338.749
		L80.699,359.647z"/>
	<polygon style="fill:#2F91ED;" points="208.303,317.97 208.303,15.68 159.925,15.68 139.027,182.466 159.925,359.647 
		239.151,359.647 	"/>
</g>
<polygon style="fill:#63C1FF;" points="111.548,15.68 111.548,317.97 80.699,359.647 159.925,359.647 159.925,15.68 "/>
<path style="fill:#2F91ED;" d="M432.762,99.784l-20.898,192.775l20.898,219.433c26.719,0,48.378-21.659,48.378-48.378V99.784
	H432.762z"/>
<path style="fill:#63C1FF;" d="M384.384,99.784v363.832c0,26.719,21.659,48.378,48.378,48.378l0,0V99.784H384.384z"/>
<g>
	<rect x="384.385" y="141.576" style="fill:#003DA8;" width="66.133" height="31.348"/>
	<rect x="384.385" y="193.823" style="fill:#003DA8;" width="66.133" height="31.348"/>
	<rect x="384.385" y="246.069" style="fill:#003DA8;" width="66.133" height="31.348"/>
	<rect x="384.385" y="298.315" style="fill:#003DA8;" width="66.133" height="31.348"/>
	<rect x="384.385" y="350.561" style="fill:#003DA8;" width="66.133" height="31.348"/>
	<rect x="384.385" y="402.807" style="fill:#003DA8;" width="66.133" height="31.348"/>
	<rect x="111.545" y="57.481" style="fill:#003DA8;" width="66.133" height="31.348"/>
	<rect x="111.545" y="109.727" style="fill:#003DA8;" width="66.133" height="31.348"/>
	<rect x="111.545" y="161.973" style="fill:#003DA8;" width="66.133" height="31.348"/>
	<rect x="111.545" y="214.219" style="fill:#003DA8;" width="66.133" height="31.348"/>
	<rect x="111.545" y="266.465" style="fill:#003DA8;" width="66.133" height="31.348"/>
	<polygon style="fill:#003DA8;" points="239.151,0.006 159.925,0.006 139.027,15.68 159.925,31.354 239.151,31.354 	"/>
</g>
<rect x="80.699" y="0.006" style="fill:#2F91ED;" width="79.226" height="31.348"/>
<polygon style="fill:#003DA8;" points="512,84.11 432.774,84.11 411.876,99.785 432.774,115.458 512,115.458 "/>
<rect x="353.549" y="84.106" style="fill:#2F91ED;" width="79.226" height="31.348"/>
</svg>