<?xml version="1.0" encoding="utf-8"?>
<!-- Uploaded to: SVG Repo, www.svgrepo.com, Generator: SVG Repo Mixer Tools -->
<svg width="800px" height="800px" viewBox="0 0 1024 1024" class="icon"  version="1.1" xmlns="http://www.w3.org/2000/svg"><path d="M810.666667 405.333333l-64-128-64 128zM341.333333 405.333333l-64-128-64 128z" fill="#8E24AA" /><path d="M384 320h256v192H384zM682.666667 405.333333h128v106.666667h-128zM213.333333 405.333333h128v106.666667h-128z" fill="#CE93D8" /><path d="M789.333333 384v128H234.666667v-128H106.666667v533.333333h810.666666V384z" fill="#E1BEE7" /><path d="M704 917.333333H320c0-192 192-256 192-256s192 64 192 256zM917.333333 384l-64-128-64 128zM640 320L512 106.666667l-128 213.333333zM234.666667 384l-64-128-64 128z" fill="#9C27B0" /><path d="M789.333333 618.666667l-32-21.333334-32 21.333334v106.666666h64zM298.666667 618.666667l-32-21.333334-32 21.333334v106.666666h64zM576 426.666667l-64-42.666667-64 42.666667v85.333333h128z" fill="#8E24AA" /></svg>