<?xml version="1.0" encoding="iso-8859-1"?>
<!-- Uploaded to: SVG Repo, www.svgrepo.com, Generator: SVG Repo Mixer Tools -->
<svg version="1.1" id="Layer_1" xmlns="http://www.w3.org/2000/svg" xmlns:xlink="http://www.w3.org/1999/xlink" 
	 viewBox="0 0 512 512" xml:space="preserve">
<rect x="113.826" y="332.886" style="fill:#C17A49;" width="286.009" height="25.361"/>
<g style="opacity:0.1;">
	<rect x="113.826" y="332.886" style="fill:#231F20;" width="25.273" height="25.361"/>
</g>
<polyline style="fill:#C17A49;" points="182.646,275.118 384.344,275.118 384.344,300.478 129.328,300.478 129.328,275.118 
	156.777,275.118 "/>
<g style="opacity:0.1;">
	<polyline style="fill:#231F20;" points="134.658,275.118 154.819,275.118 154.819,300.478 129.328,300.478 129.328,275.118 
		132.072,275.118 	"/>
</g>
<rect x="8.084" y="389.616" style="fill:#CECCCC;" width="495.832" height="31.604"/>
<rect x="8.084" y="421.22" style="fill:#2DA555;" width="495.832" height="82.696"/>
<path style="fill:#36CC6B;" d="M142.989,490.202c0-7.199-5.835-13.036-13.034-13.036c-1.17,0-2.298,0.169-3.378,0.457
	c-0.788-11.657-10.487-20.869-22.344-20.869c-6.125,0-11.671,2.457-15.716,6.44c-2.358-13.069-13.782-22.985-27.529-22.985
	c-0.472,0-0.94,0.012-1.407,0.035c-0.465-0.023-0.932-0.035-1.404-0.035c-13.747,0-25.17,9.916-27.528,22.985
	c-4.045-3.983-9.592-6.44-15.717-6.44c-2.392,0-4.688,0.39-6.849,1.085v46.077h11.339h80.318h30.213
	C137.155,503.916,142.989,497.4,142.989,490.202z"/>
<path style="fill:#B0E046;" d="M94.67,200.843c1.979-4.701,3.076-9.867,3.076-15.29c0-21.779-17.655-39.433-39.433-39.433
	c-21.777,0-39.43,17.654-39.43,39.433c0,5.422,1.096,10.588,3.076,15.292c-8.581,9.867-13.861,23.215-13.861,37.92
	c0,30.379,22.484,55.004,50.216,55.004c27.735,0,50.218-24.626,50.218-55.004C108.531,224.06,103.254,210.712,94.67,200.843z"/>
<path style="fill:#36CC6B;" d="M417.344,200.843c-1.979-4.701-3.075-9.867-3.075-15.29c0-21.779,17.655-39.433,39.433-39.433
	c21.777,0,39.43,17.654,39.43,39.433c0,5.422-1.096,10.588-3.076,15.292c8.581,9.867,13.861,23.215,13.861,37.92
	c0,30.379-22.484,55.004-50.216,55.004c-27.735,0-50.218-24.626-50.218-55.004C403.482,224.06,408.76,210.712,417.344,200.843z"/>
<g style="opacity:0.1;">
	<path style="fill:#231F20;" d="M53.298,146.438c-19.619,2.503-34.415,19.319-34.415,39.115c0,5.3,1.035,10.444,3.076,15.291v0.001
		c-8.939,10.278-13.861,23.744-13.861,37.92c0,26.897,17.551,49.7,41.736,54.22c0.332,0.063,0.664,0.092,0.993,0.092
		c2.082,0,4.019-1.212,4.905-3.163c1.025-2.259,0.376-4.925-1.573-6.461c-13.092-10.315-20.909-27.022-20.909-44.688
		c0-13.05,4.252-25.702,11.972-35.625c1.109-1.426,1.431-3.315,0.855-5.027c-1.356-4.028-2.043-8.253-2.043-12.559
		c0-11.396,4.917-22.224,13.491-29.708c1.787-1.56,2.343-4.106,1.37-6.269C57.924,147.413,55.656,146.137,53.298,146.438z"/>
	<path style="fill:#231F20;" d="M453.195,155.814c1.783-1.553,2.345-4.087,1.386-6.25c-0.958-2.161-3.211-3.451-5.562-3.167
		c-19.813,2.355-34.752,19.188-34.752,39.156c0,5.297,1.035,10.442,3.075,15.29c-8.938,10.277-13.861,23.745-13.861,37.922
		c0,27.104,17.71,49.935,42.109,54.287c0.318,0.057,0.635,0.084,0.949,0.084c2.094,0,4.038-1.223,4.918-3.186
		c1.011-2.258,0.355-4.914-1.592-6.443c-13.143-10.318-20.99-27.044-20.99-44.743c0-13.051,4.251-25.705,11.972-35.628
		c1.109-1.426,1.43-3.315,0.855-5.027c-1.356-4.028-2.043-8.253-2.043-12.556C439.662,174.146,444.595,163.305,453.195,155.814z"/>
</g>
<path style="fill:#FFA233;" d="M363.934,94.888c5.223,5.225,12.44,8.456,20.411,8.456c15.944,0,28.868-12.925,28.868-28.867
	c0-15.943-12.924-28.866-28.868-28.866c-15.942,0-28.866,12.923-28.866,28.866C355.478,82.447,358.709,89.665,363.934,94.888"/>
<g>
	<path style="fill:#85C8EB;" d="M246.973,206.691h10.633c9.979,0,18.061-8.086,18.061-18.061c0-3.352-0.926-6.476-2.516-9.165
		h37.629c9.977,0,18.061-8.087,18.061-18.062c0-9.977-8.084-18.063-18.061-18.063h-84.725c-9.977,0-18.063,8.086-18.063,18.063
		c0,3.349,0.926,6.475,2.516,9.164h-37.625c-9.979,0-18.066,8.086-18.066,18.063c0,9.975,8.086,18.061,18.066,18.061h51.196"/>
	<path style="fill:#85C8EB;" d="M152.379,71.435h-26.644h-23.811H75.28c-9.91,0-17.945,8.032-17.945,17.945
		c0,9.911,8.035,17.945,17.945,17.945h26.644h23.811h26.644c9.911,0,17.947-8.032,17.947-17.945
		C170.327,79.469,162.291,71.435,152.379,71.435z"/>
	<circle style="fill:#85C8EB;" cx="212.582" cy="89.381" r="17.945"/>
</g>
<g style="opacity:0.1;">
	<rect x="16.222" y="393.087" style="fill:#231F20;" width="17.246" height="107.789"/>
</g>
<g>
	<path style="fill:#231F20;" d="M384.344,111.428c-9.869,0-19.149-3.844-26.127-10.824c-6.979-6.979-10.823-16.258-10.823-26.127
		c0-20.374,16.576-36.95,36.95-36.95c20.375,0,36.952,16.576,36.952,36.95C421.297,94.852,404.72,111.428,384.344,111.428z
		 M384.344,53.694c-11.459,0-20.782,9.323-20.782,20.782c0,5.55,2.162,10.769,6.088,14.695c3.926,3.927,9.143,6.088,14.694,6.088
		c11.46,0,20.784-9.323,20.784-20.783C405.129,63.018,395.804,53.694,384.344,53.694z"/>
	<path style="fill:#231F20;" d="M450.738,82.561h-18.763c-4.466,0-8.084-3.618-8.084-8.084s3.618-8.084,8.084-8.084h18.763
		c4.466,0,8.084,3.618,8.084,8.084S455.204,82.561,450.738,82.561z"/>
	<path style="fill:#231F20;" d="M336.715,82.561h-18.763c-4.466,0-8.084-3.618-8.084-8.084s3.618-8.084,8.084-8.084h18.763
		c4.466,0,8.084,3.618,8.084,8.084S341.18,82.561,336.715,82.561z"/>
	<path style="fill:#231F20;" d="M418.025,48.883c-2.068,0-4.138-0.789-5.716-2.367c-3.158-3.157-3.158-8.276-0.001-11.432
		l13.268-13.268c3.158-3.158,8.277-3.157,11.432-0.001c3.158,3.157,3.158,8.276,0.001,11.432l-13.268,13.269
		C422.163,48.092,420.093,48.883,418.025,48.883z"/>
	<path style="fill:#231F20;" d="M337.398,129.508c-2.069,0-4.138-0.789-5.716-2.367c-3.158-3.157-3.158-8.276-0.001-11.432
		l13.268-13.269c3.158-3.158,8.277-3.157,11.432-0.001c3.158,3.157,3.158,8.276,0.001,11.432l-13.268,13.269
		C341.535,128.719,339.467,129.508,337.398,129.508z"/>
	<path style="fill:#231F20;" d="M384.344,34.93L384.344,34.93c-4.466,0-8.084-3.62-8.084-8.084l0.001-18.762
		c0-4.466,3.62-8.084,8.084-8.084l0,0c4.466,0,8.084,3.62,8.084,8.084l-0.001,18.762C392.428,31.312,388.808,34.93,384.344,34.93z"
		/>
	<path style="fill:#231F20;" d="M384.344,148.954c-4.466,0-8.084-3.618-8.084-8.084v-18.764c0-4.466,3.618-8.084,8.084-8.084
		c4.466,0,8.084,3.618,8.084,8.084v18.764C392.428,145.336,388.81,148.954,384.344,148.954z"/>
	<path style="fill:#231F20;" d="M350.665,48.883c-2.068,0-4.138-0.789-5.717-2.367L331.68,33.248c-3.157-3.158-3.157-8.276,0-11.433
		c3.158-3.156,8.276-3.156,11.433,0l13.268,13.268c3.157,3.158,3.157,8.276,0,11.433C354.803,48.092,352.733,48.883,350.665,48.883z
		"/>
	<path style="fill:#231F20;" d="M431.293,129.509c-2.068,0-4.138-0.789-5.717-2.367l-13.268-13.268
		c-3.157-3.158-3.157-8.276,0-11.433c3.158-3.156,8.276-3.156,11.433,0l13.268,13.268c3.157,3.158,3.157,8.276,0,11.433
		C435.431,128.72,433.361,129.509,431.293,129.509z"/>
	<path style="fill:#231F20;" d="M257.606,214.775h-10.633c-4.466,0-8.084-3.618-8.084-8.084c0-4.466,3.618-8.084,8.084-8.084h10.633
		c5.502,0,9.977-4.475,9.977-9.977c0-1.79-0.469-3.49-1.392-5.053c-1.477-2.499-1.5-5.598-0.063-8.119
		c1.439-2.521,4.119-4.078,7.022-4.078h37.629c5.501,0,9.977-4.475,9.977-9.978c0-5.502-4.475-9.979-9.977-9.979h-84.725
		c-5.502,0-9.979,4.477-9.979,9.979c0,1.789,0.469,3.489,1.392,5.052c1.477,2.499,1.5,5.598,0.063,8.119
		c-1.439,2.521-4.119,4.078-7.022,4.078h-37.625c-5.503,0-9.981,4.477-9.981,9.979c0,5.502,4.478,9.977,9.981,9.977h51.196
		c4.466,0,8.084,3.618,8.084,8.084s-3.618,8.084-8.084,8.084h-51.196c-14.419,0-26.15-11.729-26.15-26.145
		c0-14.418,11.731-26.148,26.15-26.148h27.048c-0.015-0.359-0.023-0.72-0.023-1.08c0-14.418,11.73-26.148,26.148-26.148h84.725
		c14.417,0,26.145,11.73,26.145,26.148c0,14.417-11.729,26.146-26.145,26.146h-27.052c0.015,0.36,0.023,0.72,0.023,1.081
		C283.751,203.046,272.023,214.775,257.606,214.775z"/>
	<path style="fill:#231F20;" d="M152.379,115.409H75.28c-14.352,0-26.029-11.676-26.029-26.029
		c0-14.352,11.677-26.029,26.029-26.029h77.099c14.353,0,26.031,11.677,26.031,26.029
		C178.411,103.733,166.733,115.409,152.379,115.409z M75.28,79.52c-5.438,0-9.861,4.424-9.861,9.861
		c0,5.437,4.424,9.861,9.861,9.861h77.099c5.439,0,9.863-4.424,9.863-9.861c0-5.438-4.424-9.861-9.863-9.861H75.28z"/>
	<path style="fill:#231F20;" d="M503.916,381.529h-42.133v-37.222l20.601-13.47c3.737-2.444,4.785-7.454,2.342-11.191
		c-2.442-3.737-7.455-4.785-11.191-2.342l-11.752,7.684v-23.757C490.115,296.96,512,270.584,512,238.766
		c0-14.449-4.517-28.276-12.811-39.45c1.345-4.442,2.025-9.052,2.025-13.763c0-26.201-21.314-47.517-47.515-47.517
		c-26.201,0-47.517,21.315-47.517,47.517c0,4.708,0.68,9.318,2.025,13.76c-8.292,11.172-12.811,25.001-12.811,39.452
		c0,31.817,21.883,58.194,50.217,62.468v80.297h-53.187v-15.202h7.414c4.466,0,8.084-3.618,8.084-8.084v-25.361
		c0-4.466-3.618-8.084-8.084-8.084h-7.414v-24.321v-25.36v-16.236c0-4.466-3.618-8.084-8.084-8.084
		c-4.466,0-8.084,3.618-8.084,8.084v8.152H182.646c-4.466,0-8.084,3.618-8.084,8.084s3.618,8.084,8.084,8.084H376.26v9.191H137.412
		v-9.191h19.364c4.466,0,8.084-3.618,8.084-8.084s-3.618-8.084-8.084-8.084h-19.364v-8.152c0-4.466-3.618-8.084-8.084-8.084
		s-8.084,3.618-8.084,8.084v16.236v25.36V324.8h-7.414c-4.466,0-8.084,3.618-8.084,8.084v25.361c0,4.466,3.618,8.084,8.084,8.084
		h7.414v15.202H66.399v-80.297c28.334-4.274,50.217-30.65,50.217-62.468c0-14.45-4.517-28.279-12.811-39.452
		c1.345-4.442,2.025-9.051,2.025-13.76c0-26.201-21.315-47.517-47.517-47.517c-26.2,0-47.515,21.315-47.515,47.517
		c0,4.709,0.68,9.319,2.025,13.763c-8.292,11.172-12.811,25-12.811,39.45c0,31.818,21.884,58.194,50.217,62.468v23.757
		l-11.752-7.684c-3.737-2.444-8.745-1.395-11.191,2.342c-2.444,3.737-1.395,8.747,2.342,11.191l20.601,13.47v37.222H8.084
		c-4.466,0-8.084,3.618-8.084,8.084v31.602v36.624v46.074C0,508.382,3.618,512,8.084,512h121.871h373.96
		c4.466,0,8.084-3.618,8.084-8.084v-82.7v-31.602C512,385.148,508.382,381.529,503.916,381.529z M411.566,238.766
		c0-12.227,4.218-23.811,11.877-32.617c2.023-2.326,2.547-5.601,1.351-8.442c-1.62-3.849-2.443-7.939-2.443-12.152
		c0-17.285,14.063-31.348,31.348-31.348c17.284,0,31.346,14.063,31.346,31.348c0,4.216-0.822,8.305-2.443,12.154
		c-1.196,2.841-0.673,6.116,1.351,8.442c7.658,8.806,11.877,20.389,11.877,32.615c0,22.793-14.671,41.833-34.049,46.044v-51.351
		c0-4.466-3.618-8.084-8.084-8.084s-8.084,3.618-8.084,8.084v51.35C426.238,280.598,411.566,261.558,411.566,238.766z
		 M16.182,238.766c0-12.225,4.218-23.809,11.877-32.615c2.023-2.326,2.547-5.601,1.351-8.442c-1.62-3.849-2.443-7.939-2.443-12.154
		c0-17.285,14.062-31.348,31.346-31.348c17.285,0,31.348,14.063,31.348,31.348c0,4.213-0.822,8.303-2.443,12.152
		c-1.196,2.841-0.673,6.116,1.351,8.442c7.658,8.806,11.877,20.391,11.877,32.617c0,22.792-14.672,41.832-34.049,46.044v-51.35
		c0-4.466-3.618-8.084-8.084-8.084s-8.084,3.618-8.084,8.084v51.351C30.854,280.599,16.182,261.558,16.182,238.766z
		 M121.914,350.159v-9.192h269.843v9.192L121.914,350.159L121.914,350.159z M137.412,308.562H376.26v16.236H137.412V308.562z
		 M137.412,366.328H376.26v15.202H137.412V366.328z M16.168,397.698h479.663v15.433H16.168V397.698z M16.168,495.832v-30.941
		c3.318,0.282,6.408,1.7,8.81,4.064c2.134,2.104,5.259,2.852,8.117,1.946c2.858-0.906,4.978-3.32,5.51-6.269
		c1.707-9.466,9.939-16.337,19.572-16.337c0.337,0,0.67,0.009,1.002,0.024c0.267,0.015,0.536,0.014,0.803,0.001
		c0.333-0.017,0.668-0.025,1.006-0.025c9.634,0,17.865,6.87,19.573,16.337c0.532,2.95,2.654,5.364,5.511,6.269
		c2.856,0.911,5.982,0.158,8.117-1.946c2.695-2.654,6.261-4.115,10.043-4.115c7.501,0,13.772,5.856,14.279,13.33
		c0.162,2.409,1.394,4.62,3.358,6.027c1.963,1.407,4.452,1.862,6.786,1.241c0.468-0.125,0.893-0.185,1.299-0.185
		c2.729,0,4.95,2.222,4.95,4.952c0,2.894-2.405,5.63-4.95,5.63H16.168V495.832z M495.832,495.832H150.303
		c0.487-1.805,0.771-3.689,0.771-5.63c0-10.584-7.823-19.374-17.991-20.89c-4.123-12.04-15.583-20.643-28.849-20.643
		c-4.027,0-7.94,0.778-11.564,2.264c-6.168-11.339-18.165-18.808-31.683-18.808c-0.471,0-0.939,0.01-1.407,0.027
		c-0.466-0.018-0.933-0.027-1.404-0.027c-13.518,0-25.515,7.469-31.683,18.808c-3.246-1.33-6.757-2.084-10.327-2.224V429.3h479.663
		v66.532H495.832z"/>
	<path style="fill:#231F20;" d="M212.578,115.409c-14.352,0-26.029-11.676-26.029-26.029c0-14.352,11.677-26.029,26.029-26.029
		c14.353,0,26.029,11.677,26.029,26.029C238.606,103.733,226.93,115.409,212.578,115.409z M212.578,79.52
		c-5.438,0-9.861,4.424-9.861,9.861c0,5.437,4.424,9.861,9.861,9.861c5.437,0,9.861-4.424,9.861-9.861
		C222.438,83.943,218.015,79.52,212.578,79.52z"/>
</g>
</svg>