<?xml version="1.0" encoding="iso-8859-1"?>
<!-- Uploaded to: SVG Repo, www.svgrepo.com, Generator: SVG Repo Mixer Tools -->
<svg height="800px" width="800px" version="1.1" id="Layer_1" xmlns="http://www.w3.org/2000/svg" xmlns:xlink="http://www.w3.org/1999/xlink" 
	 viewBox="0 0 511.998 511.998" xml:space="preserve">
<path style="fill:#6E6057;" d="M261.56,511.986h-66.784c-9.217,0-16.696-7.473-16.696-16.696V383.983
	c0-9.223,7.479-16.696,16.696-16.696h66.784c9.217,0,16.696,7.473,16.696,16.696V495.29
	C278.256,504.512,270.777,511.986,261.56,511.986z"/>
<path style="fill:#615349;" d="M261.56,367.287h-33.392v144.699h33.392c9.217,0,16.696-7.473,16.696-16.696V383.983
	C278.256,374.759,270.777,367.287,261.56,367.287z"/>
<path style="fill:#9DCA40;" d="M404.701,283.807h-33.058l-70.791,116.872H16.685c-14.805,0-22.261-18.032-11.8-28.495l88.379-88.378
	H56.978c-14.804,0-22.261-18.032-11.797-28.495l88.376-88.378H97.271c-14.805,0-22.261-18.032-11.8-28.495L219.04,4.872
	c2.671-2.671,5.788-4.118,9.128-4.564c5.12-1.002,10.574,0.557,14.47,4.564L376.206,138.44c10.462,10.463,3.117,28.495-11.8,28.495
	H328.12l88.376,88.378C427.073,265.775,419.616,283.807,404.701,283.807z"/>
<path style="fill:#85BB04;" d="M404.701,283.807h-33.058l-70.791,116.872h-72.683V0.307c5.12-1.002,10.574,0.557,14.47,4.564
	l133.568,133.568c10.462,10.463,3.117,28.495-11.8,28.495H328.12l88.376,88.378C427.073,265.775,419.616,283.807,404.701,283.807z"
	/>
<path style="fill:#E4A637;" d="M395.128,511.986c-64.897,0-116.872-51.561-116.872-107.22c0-36.691,25.425-65.566,26.511-66.779
	c24.452-28.527,23.004-63.339-0.055-89.111c-4.751-5.407-5.522-13.283-1.88-19.49c3.652-6.234,10.891-9.419,17.88-7.907
	c52.99,11.446,91.11,58.67,91.11,112.394v26.37c0,3.071,2.5,5.565,5.565,5.565c3.065,0,5.565-2.494,5.565-5.565v-48.508
	c0-6.924,4.272-13.131,10.739-15.599c6.489-2.451,13.794-0.69,18.402,4.473l33.392,37.376c1.087,1.212,26.511,30.087,26.511,66.779
	C512,460.471,459.984,511.986,395.128,511.986z"/>
<path style="fill:#F0CA45;" d="M395.128,478.594c-49.197,0-83.48-38.908-83.48-73.828c0-23.679,17.88-44.376,18.065-44.583
	c21.631-25.223,29.859-55.218,24.794-83.682c14.87,14.935,23.924,35.392,23.924,57.371v26.37c0,21.479,17.478,38.957,38.957,38.957
	c21.479,0,38.957-17.479,38.957-38.957v-4.755l4.24,4.745c0.141,0.158,18.022,20.853,18.022,44.534
	C478.608,439.684,444.325,478.594,395.128,478.594z"/>
</svg>