<?xml version="1.0" encoding="iso-8859-1"?>
<!-- Uploaded to: SVG Repo, www.svgrepo.com, Generator: SVG Repo Mixer Tools -->
<svg version="1.1" id="Layer_1" xmlns="http://www.w3.org/2000/svg" xmlns:xlink="http://www.w3.org/1999/xlink" 
	 viewBox="0 0 512 512" xml:space="preserve">
<g>
	<path style="fill:#DD352E;" d="M359.883,412.692c12.537,0,22.699,10.162,22.699,22.699s-10.162,22.699-22.699,22.699
		c-12.526,0-22.687-10.162-22.687-22.699S347.357,412.692,359.883,412.692z"/>
	<path style="fill:#DD352E;" d="M337.195,124.462c12.537,0,22.687,10.162,22.687,22.699c0,12.526-10.15,22.687-22.687,22.687
		c-12.537,0-22.699-10.162-22.699-22.687C314.497,134.624,324.658,124.462,337.195,124.462z"/>
	<path style="fill:#DD352E;" d="M246.423,72.29c12.526,0,22.687,10.162,22.687,22.699c0,12.526-10.162,22.687-22.687,22.687
		c-12.537,0-22.699-10.162-22.699-22.687C223.725,82.452,233.886,72.29,246.423,72.29z"/>
	<path style="fill:#DD352E;" d="M164.142,143.865c12.526,0,22.687,10.162,22.687,22.687c0,12.537-10.162,22.699-22.687,22.699
		c-12.537,0-22.699-10.162-22.699-22.699C141.443,154.026,151.605,143.865,164.142,143.865z"/>
</g>
<path style="fill:#A26234;" d="M314.497,191.524v28.28c-39.714,0-39.714,34.042-39.714,34.042v79.428v170.201h-45.386V333.434
	v-51.228c0,0,0-39.714-34.042-39.714l-0.489-29.371c26.143,0,55.695,27.279,55.695,27.279
	C250.561,183.568,314.497,191.524,314.497,191.524z"/>
<path style="fill:#43B05C;" d="M393.027,115.358c7.763,18.732,24.279,36.839,24.279,58.378s-16.515,39.646-24.279,58.367
	c-8.059,19.425-9.48,43.818-24.12,58.457c-14.629,14.629-39.021,16.049-58.446,24.108c-11.673,4.842-23.108,13.083-35.281,18.607
	h-0.398v-79.428c0,0,0-34.042,39.714-34.042v-28.28c0,0-63.936-7.956-63.936,48.876c0,0-29.553-27.279-55.695-27.279l0.489,29.371
	c34.042,0,34.042,39.714,34.042,39.714v51.228h-0.011c-12.321-5.513-23.869-13.878-35.668-18.766
	c-19.414-8.059-43.818-9.48-58.446-24.12c-14.629-14.629-16.061-39.021-24.108-58.446c-7.763-18.72-24.279-36.827-24.279-58.367
	s16.515-39.646,24.279-58.378c8.047-19.414,9.48-43.818,24.108-58.446c14.64-14.629,39.032-16.061,58.446-24.108
	c18.732-7.763,36.839-24.279,58.378-24.279s39.646,16.515,58.367,24.279c19.425,8.047,43.818,9.48,58.457,24.108
	C383.548,71.552,384.968,95.944,393.027,115.358z M359.883,147.161c0-12.537-10.15-22.699-22.687-22.699
	c-12.537,0-22.699,10.162-22.699,22.699c0,12.526,10.162,22.687,22.699,22.687C349.733,169.848,359.883,159.687,359.883,147.161z
	 M269.111,94.989c0-12.537-10.162-22.699-22.687-22.699c-12.537,0-22.699,10.162-22.699,22.699
	c0,12.526,10.162,22.687,22.699,22.687C258.949,117.676,269.111,107.515,269.111,94.989z M186.829,166.552
	c0-12.526-10.162-22.687-22.687-22.687c-12.537,0-22.699,10.162-22.699,22.687c0,12.537,10.162,22.699,22.699,22.699
	C176.668,189.251,186.829,179.089,186.829,166.552z"/>
<path d="M425.831,173.736c0-16.705-8.379-31.278-15.772-44.135c-3.5-6.086-6.804-11.832-9.158-17.512
	c-2.498-6.017-4.329-12.636-6.269-19.643c-4.115-14.866-8.368-30.238-19.687-41.565c-11.331-11.322-26.718-15.58-41.599-19.697
	c-6.997-1.937-13.608-3.766-19.618-6.255c-5.67-2.351-11.412-5.654-17.492-9.151C283.378,8.383,268.804,0,252.095,0
	c-16.705,0-31.278,8.379-44.135,15.772c-6.084,3.499-11.831,6.803-17.508,9.156c-6.012,2.492-12.62,4.32-19.617,6.257
	c-14.876,4.117-30.261,8.375-41.592,19.698c-11.322,11.322-15.581,26.71-19.698,41.59c-1.937,6.998-3.766,13.609-6.257,19.621
	c-2.352,5.675-5.657,11.422-9.156,17.507c-7.393,12.858-15.772,27.429-15.772,44.135c0,16.709,8.383,31.283,15.778,44.14
	c3.497,6.08,6.799,11.822,9.15,17.488c2.49,6.013,4.319,12.621,6.255,19.618c4.118,14.881,8.376,30.268,19.698,41.591
	c11.319,11.328,26.699,15.583,41.573,19.7c7.005,1.939,13.62,3.769,19.641,6.269c5.666,2.347,11.405,5.647,17.48,9.141
	c4.191,2.41,8.491,4.873,12.936,7.121V494.95h-116.29V512h283.672v-17.05H283.307V338.821c4.441-2.247,8.733-4.715,12.918-7.122
	c6.083-3.5,11.83-6.805,17.503-9.158c6.02-2.497,12.637-4.329,19.643-6.267c14.871-4.115,30.246-8.369,41.564-19.687
	c11.327-11.327,15.583-26.708,19.7-41.582c1.938-7.004,3.769-13.619,6.266-19.638c2.351-5.67,5.655-11.412,9.151-17.492
	C417.448,205.018,425.831,190.444,425.831,173.736z M237.921,494.95V282.205c0-0.476-0.056-11.81-4.944-23.215
	c-5.754-13.425-15.969-21.831-29.225-24.279l-0.199-11.938c16.72,4.058,34.803,17.982,41.227,23.891l14.307,13.207V240.4
	c0-13.149,3.718-22.839,11.366-29.624c10.554-9.363,26.3-11.02,35.52-11.097v12.088c-39.232,4.693-39.714,41.681-39.714,42.08
	V494.95L237.921,494.95L237.921,494.95z M395.273,209.376c-3.612,6.281-7.348,12.776-10.121,19.46
	c-2.9,6.989-4.958,14.429-6.949,21.622c-3.69,13.332-7.174,25.923-15.323,34.073c-8.141,8.141-20.728,11.623-34.055,15.311
	c-7.197,1.991-14.638,4.05-21.629,6.951c-6.689,2.775-13.187,6.512-19.472,10.127c-1.461,0.84-2.935,1.687-4.417,2.526v-65.534
	c0.001-0.068,0.153-6.868,4.104-13.294c5.014-8.154,14.127-12.289,27.085-12.289h8.525v-44.334l-7.472-0.93
	c-1.414-0.177-34.851-4.088-56.332,14.885c-7.734,6.831-12.882,15.602-15.394,26.185c-2.052-1.471-4.302-3.012-6.713-4.555
	c-15.535-9.943-29.748-14.985-42.246-14.985h-8.668l0.773,46.42h8.384c10.397,0,17.522,4.678,21.783,14.302
	c3.633,8.207,3.734,16.829,3.735,16.886v37.234c-1.489-0.842-2.97-1.692-4.437-2.536c-6.278-3.61-12.769-7.342-19.448-10.109
	c-6.988-2.901-14.43-4.96-21.625-6.952c-13.329-3.69-25.92-7.173-34.062-15.322c-8.146-8.146-11.632-20.746-15.323-34.084
	c-1.989-7.186-4.044-14.615-6.938-21.6c-2.772-6.685-6.507-13.179-10.121-19.46c-6.946-12.077-13.508-23.485-13.508-35.641
	c0-12.153,6.56-23.559,13.503-35.636c3.615-6.286,7.352-12.786,10.125-19.477c2.894-6.981,4.95-14.414,6.939-21.602
	c3.691-13.338,7.177-25.936,15.32-34.079c8.153-8.146,20.751-11.634,34.087-15.324c7.187-1.989,14.618-4.046,21.598-6.939
	c6.693-2.773,13.192-6.512,19.479-10.126c12.075-6.941,23.481-13.501,35.634-13.501c12.155,0,23.563,6.561,35.641,13.508
	c6.281,3.613,12.776,7.348,19.464,10.122c6.982,2.893,14.414,4.949,21.6,6.938c13.34,3.692,25.94,7.178,34.09,15.321
	c8.141,8.146,11.623,20.732,15.311,34.057c1.991,7.198,4.051,14.64,6.952,21.628c2.773,6.693,6.512,13.192,10.126,19.479
	c6.944,12.077,13.503,23.483,13.503,35.636C408.781,185.891,402.22,197.298,395.273,209.376z"/>
<rect x="405.28" y="494.95" width="28.359" height="17.05"/>
<path d="M246.423,63.766c-17.217,0-31.224,14.007-31.224,31.224c0,17.211,14.007,31.212,31.224,31.212
	c17.211,0,31.212-14.001,31.212-31.212C277.635,77.772,263.634,63.766,246.423,63.766z M246.423,109.152
	c-7.816,0-14.174-6.353-14.174-14.163c0-7.816,6.358-14.174,14.174-14.174c7.81,0,14.163,6.358,14.163,14.174
	C260.586,102.798,254.233,109.152,246.423,109.152z"/>
<path d="M337.195,115.937c-17.217,0-31.224,14.007-31.224,31.224c0,17.211,14.007,31.212,31.224,31.212
	c17.211,0,31.212-14.001,31.212-31.212C368.408,129.944,354.406,115.937,337.195,115.937z M337.195,161.323
	c-7.816,0-14.174-6.353-14.174-14.163c0-7.816,6.358-14.174,14.174-14.174c7.81,0,14.163,6.358,14.163,14.174
	C351.358,154.971,345.005,161.323,337.195,161.323z"/>
<path d="M328.671,435.39c0,17.217,14.001,31.224,31.212,31.224c17.217,0,31.224-14.007,31.224-31.224s-14.007-31.224-31.224-31.224
	C342.673,404.167,328.671,418.174,328.671,435.39z M359.883,421.216c7.816,0,14.174,6.358,14.174,14.174
	s-6.358,14.174-14.174,14.174c-7.81,0-14.163-6.358-14.163-14.174S352.074,421.216,359.883,421.216z"/>
<path d="M164.142,135.34c-17.217,0-31.224,14.001-31.224,31.212c0,17.217,14.007,31.224,31.224,31.224
	c17.211,0,31.212-14.007,31.212-31.224C195.354,149.341,181.353,135.34,164.142,135.34z M164.142,180.726
	c-7.816,0-14.174-6.358-14.174-14.174c0-7.81,6.358-14.163,14.174-14.163c7.81,0,14.163,6.353,14.163,14.163
	C178.304,174.368,171.952,180.726,164.142,180.726z"/>
<rect x="374.057" y="361.634" width="17.05" height="28.371"/>
<rect x="340.014" y="333.275" width="17.05" height="56.73"/>
</svg>