<!DOCTYPE svg PUBLIC "-//W3C//DTD SVG 1.1//EN" "http://www.w3.org/Graphics/SVG/1.1/DTD/svg11.dtd">
<!-- Uploaded to: SVG Repo, www.svgrepo.com, Transformed by: SVG Repo Mixer Tools -->
<svg fill="#00007b" width="800px" height="800px" viewBox="0 0 32 32" version="1.1" xmlns="http://www.w3.org/2000/svg" stroke="#00007b">
<g id="SVGRepo_bgCarrier" stroke-width="0"/>
<g id="SVGRepo_tracerCarrier" stroke-linecap="round" stroke-linejoin="round"/>
<g id="SVGRepo_iconCarrier"> <title>star-round</title> <path d="M0 16q0-3.232 1.28-6.208t3.392-5.12 5.12-3.392 6.208-1.28q3.264 0 6.24 1.28t5.088 3.392 3.392 5.12 1.28 6.208q0 3.264-1.28 6.208t-3.392 5.12-5.12 3.424-6.208 1.248-6.208-1.248-5.12-3.424-3.392-5.12-1.28-6.208zM4 16q0 3.264 1.6 6.048t4.384 4.352 6.016 1.6 6.016-1.6 4.384-4.352 1.6-6.048-1.6-6.016-4.384-4.352-6.016-1.632-6.016 1.632-4.384 4.352-1.6 6.016zM6.496 12.928l6.56-0.96 2.944-5.952 2.944 5.952 6.56 0.96-4.768 4.64 1.152 6.528-5.888-3.072-5.888 3.072 1.152-6.528z"/> </g>
</svg>